<svg width="304" height="204" viewBox="0 0 304 204" fill="none" xmlns="http://www.w3.org/2000/svg">
<path d="M303.799 119.013C303.799 241.427 212.221 194.449 134.802 194.449C57.3833 194.449 0.916992 161.161 0.916992 91.5297C0.916992 21.8981 18.0932 1.11971 95.5118 1.11971C230.491 -6.40598 303.799 32.2077 303.799 119.013Z" fill="#C7CDC2"/>
<path d="M98.46 65.36C96.2867 65.36 94.5 64.66 93.1 63.26C91.7 61.86 91 60.0733 91 57.9C91 55.7133 91.7133 53.9333 93.14 52.56C94.5667 51.1733 96.3667 50.48 98.54 50.48C99.5533 50.48 100.527 50.6733 101.46 51.06C102.393 51.4467 103.113 51.9867 103.62 52.68L102.06 53.88C101.713 53.3867 101.22 52.9867 100.58 52.68C99.94 52.3733 99.26 52.22 98.54 52.22C96.94 52.22 95.64 52.7667 94.64 53.86C93.6533 54.9533 93.16 56.3 93.16 57.9C93.16 59.5267 93.6467 60.8867 94.62 61.98C95.5933 63.06 96.88 63.6 98.48 63.6C100.147 63.6 101.413 62.9733 102.28 61.72L103.86 62.8C102.607 64.5067 100.807 65.36 98.46 65.36ZM108.86 65V52.58H104.32V50.84H115.38V52.58H110.84V65H108.86ZM123.421 65.36C121.261 65.36 119.475 64.66 118.061 63.26C116.648 61.86 115.941 60.0733 115.941 57.9C115.941 55.7133 116.641 53.9333 118.041 52.56C119.455 51.1733 121.248 50.48 123.421 50.48C125.595 50.48 127.388 51.1733 128.801 52.56C130.228 53.9333 130.941 55.7133 130.941 57.9C130.941 60.0733 130.228 61.86 128.801 63.26C127.388 64.66 125.595 65.36 123.421 65.36ZM123.421 63.58C125.035 63.58 126.335 63.04 127.321 61.96C128.308 60.8667 128.801 59.5133 128.801 57.9C128.801 56.3 128.308 54.9533 127.321 53.86C126.335 52.7667 125.035 52.22 123.421 52.22C121.835 52.22 120.548 52.7667 119.561 53.86C118.575 54.9533 118.081 56.3 118.081 57.9C118.081 59.5133 118.575 60.8667 119.561 61.96C120.548 63.04 121.835 63.58 123.421 63.58ZM133.634 65V50.84H135.614V62.06H135.654L142.794 50.84H144.974V65H142.994V53.78H142.954L135.814 65H133.634ZM148.419 65V50.84H151.499L155.739 61.72H155.779L159.959 50.84H163.039V65H161.059V53.16H161.019L156.319 65H155.059L150.379 53.16H150.339V65H148.419ZM173.246 65.36C171.086 65.36 169.299 64.66 167.886 63.26C166.472 61.86 165.766 60.0733 165.766 57.9C165.766 55.7133 166.466 53.9333 167.866 52.56C169.279 51.1733 171.072 50.48 173.246 50.48C175.419 50.48 177.212 51.1733 178.626 52.56C180.052 53.9333 180.766 55.7133 180.766 57.9C180.766 60.0733 180.052 61.86 178.626 63.26C177.212 64.66 175.419 65.36 173.246 65.36ZM173.246 63.58C174.859 63.58 176.159 63.04 177.146 61.96C178.132 60.8667 178.626 59.5133 178.626 57.9C178.626 56.3 178.132 54.9533 177.146 53.86C176.159 52.7667 174.859 52.22 173.246 52.22C171.659 52.22 170.372 52.7667 169.386 53.86C168.399 54.9533 167.906 56.3 167.906 57.9C167.906 59.5133 168.399 60.8667 169.386 61.96C170.372 63.04 171.659 63.58 173.246 63.58ZM190.198 65.36C188.025 65.36 186.238 64.66 184.838 63.26C183.438 61.86 182.738 60.0733 182.738 57.9C182.738 55.7133 183.452 53.9333 184.878 52.56C186.305 51.1733 188.105 50.48 190.278 50.48C191.292 50.48 192.265 50.6733 193.198 51.06C194.132 51.4467 194.852 51.9867 195.358 52.68L193.798 53.88C193.452 53.3867 192.958 52.9867 192.318 52.68C191.678 52.3733 190.998 52.22 190.278 52.22C188.678 52.22 187.378 52.7667 186.378 53.86C185.392 54.9533 184.898 56.3 184.898 57.9C184.898 59.5267 185.385 60.8867 186.358 61.98C187.332 63.06 188.618 63.6 190.218 63.6C191.885 63.6 193.152 62.9733 194.018 61.72L195.598 62.8C194.345 64.5067 192.545 65.36 190.198 65.36ZM200.598 65V52.58H196.058V50.84H207.118V52.58H202.578V65H200.598ZM209.005 65V50.84H210.985V56.72H213.265C214.852 56.72 216.118 57.0667 217.065 57.76C218.012 58.4533 218.485 59.4867 218.485 60.86C218.485 62.22 218.012 63.2533 217.065 63.96C216.132 64.6533 214.878 65 213.305 65H209.005ZM210.985 63.32H213.105C215.358 63.32 216.485 62.5067 216.485 60.88C216.485 60.08 216.192 59.4667 215.605 59.04C215.018 58.6133 214.185 58.4 213.105 58.4H210.985V63.32Z" fill="black"/>
<path d="M61 77H237" stroke="black"/>
<path d="M79.774 108.67V105.235H80.614C81.894 103.925 82.534 101.615 82.534 98.305V95.38H88.924V105.235H90.139V108.67H89.314V106H80.584V108.67H79.774ZM81.694 105.235H88.069V96.145H83.374V98.305C83.374 101.555 82.814 103.865 81.694 105.235ZM95.2412 106.195C94.1712 106.195 93.2862 105.845 92.5862 105.145C91.8962 104.445 91.5512 103.565 91.5512 102.505C91.5512 101.435 91.8962 100.555 92.5862 99.865C93.2762 99.175 94.1612 98.83 95.2412 98.83C96.3212 98.83 97.2062 99.175 97.8962 99.865C98.5962 100.555 98.9462 101.435 98.9462 102.505C98.9462 103.565 98.5962 104.445 97.8962 105.145C97.2062 105.845 96.3212 106.195 95.2412 106.195ZM95.2412 105.49C96.1012 105.49 96.7912 105.205 97.3112 104.635C97.8312 104.065 98.0912 103.355 98.0912 102.505C98.0912 101.655 97.8312 100.945 97.3112 100.375C96.7912 99.795 96.1012 99.505 95.2412 99.505C94.3912 99.505 93.7062 99.795 93.1862 100.375C92.6662 100.945 92.4062 101.655 92.4062 102.505C92.4062 103.355 92.6662 104.065 93.1862 104.635C93.7062 105.205 94.3912 105.49 95.2412 105.49ZM106.812 99.925L106.272 100.42C106.062 100.15 105.782 99.935 105.432 99.775C105.082 99.615 104.717 99.535 104.337 99.535C103.507 99.535 102.832 99.82 102.312 100.39C101.802 100.95 101.547 101.655 101.547 102.505C101.547 103.355 101.802 104.06 102.312 104.62C102.822 105.18 103.487 105.46 104.307 105.46C105.127 105.46 105.807 105.18 106.347 104.62L106.857 105.085C106.217 105.825 105.367 106.195 104.307 106.195C103.227 106.195 102.357 105.85 101.697 105.16C101.037 104.47 100.707 103.585 100.707 102.505C100.707 101.435 101.042 100.555 101.712 99.865C102.392 99.175 103.262 98.83 104.322 98.83C105.402 98.83 106.232 99.195 106.812 99.925ZM110.393 106V99.7H107.813V99.01H113.783V99.7H111.203V106H110.393ZM115.379 109.615C115.129 109.615 114.854 109.58 114.554 109.51L114.659 108.775C114.869 108.855 115.099 108.895 115.349 108.895C115.689 108.895 115.959 108.785 116.159 108.565C116.369 108.355 116.554 108.04 116.714 107.62L117.314 106.045L114.389 99.01H115.304L117.734 105.16L120.014 99.01H120.899L117.419 107.95C117.199 108.5 116.934 108.915 116.624 109.195C116.314 109.475 115.899 109.615 115.379 109.615ZM122.575 106V99.01H128.395V106H127.585V99.7H123.4V106H122.575ZM131.232 106V99.01H132.057V102.025H136.347V99.01H137.157V106H136.347V102.715H132.057V106H131.232ZM141.852 106.195C141.232 106.195 140.677 106.02 140.187 105.67C139.697 105.32 139.452 104.8 139.452 104.11C139.452 103.71 139.537 103.365 139.707 103.075C139.887 102.785 140.112 102.56 140.382 102.4C140.652 102.23 140.987 102.1 141.387 102.01C141.797 101.91 142.192 101.845 142.572 101.815C142.952 101.785 143.387 101.77 143.877 101.77H144.402V101.455C144.402 100.155 143.742 99.505 142.422 99.505C141.602 99.505 140.907 99.78 140.337 100.33L139.887 99.79C140.547 99.15 141.417 98.83 142.497 98.83C143.307 98.83 143.957 99.045 144.447 99.475C144.937 99.905 145.182 100.535 145.182 101.365V104.425C145.182 105.055 145.222 105.58 145.302 106H144.567C144.487 105.52 144.447 105.09 144.447 104.71H144.417C143.867 105.7 143.012 106.195 141.852 106.195ZM142.047 105.52C142.807 105.52 143.387 105.275 143.787 104.785C144.197 104.285 144.402 103.685 144.402 102.985V102.415H143.877C141.487 102.415 140.292 102.965 140.292 104.065C140.292 104.565 140.462 104.935 140.802 105.175C141.152 105.405 141.567 105.52 142.047 105.52ZM147.437 106L149.342 103.12C148.162 102.87 147.572 102.195 147.572 101.095C147.572 100.435 147.807 99.925 148.277 99.565C148.747 99.195 149.387 99.01 150.197 99.01H153.092V106H152.267V103.18H150.227L148.427 106H147.437ZM150.197 102.49H152.267V99.7H150.242C149.652 99.7 149.197 99.82 148.877 100.06C148.557 100.3 148.397 100.645 148.397 101.095C148.397 101.525 148.552 101.865 148.862 102.115C149.182 102.365 149.627 102.49 150.197 102.49ZM165.244 99.925L164.704 100.42C164.494 100.15 164.214 99.935 163.864 99.775C163.514 99.615 163.149 99.535 162.769 99.535C161.939 99.535 161.264 99.82 160.744 100.39C160.234 100.95 159.979 101.655 159.979 102.505C159.979 103.355 160.234 104.06 160.744 104.62C161.254 105.18 161.919 105.46 162.739 105.46C163.559 105.46 164.239 105.18 164.779 104.62L165.289 105.085C164.649 105.825 163.799 106.195 162.739 106.195C161.659 106.195 160.789 105.85 160.129 105.16C159.469 104.47 159.139 103.585 159.139 102.505C159.139 101.435 159.474 100.555 160.144 99.865C160.824 99.175 161.694 98.83 162.754 98.83C163.834 98.83 164.664 99.195 165.244 99.925ZM168.825 106V99.7H166.245V99.01H172.215V99.7H169.635V106H168.825ZM176.935 106.195C175.865 106.195 174.98 105.845 174.28 105.145C173.59 104.445 173.245 103.565 173.245 102.505C173.245 101.435 173.59 100.555 174.28 99.865C174.97 99.175 175.855 98.83 176.935 98.83C178.015 98.83 178.9 99.175 179.59 99.865C180.29 100.555 180.64 101.435 180.64 102.505C180.64 103.565 180.29 104.445 179.59 105.145C178.9 105.845 178.015 106.195 176.935 106.195ZM176.935 105.49C177.795 105.49 178.485 105.205 179.005 104.635C179.525 104.065 179.785 103.355 179.785 102.505C179.785 101.655 179.525 100.945 179.005 100.375C178.485 99.795 177.795 99.505 176.935 99.505C176.085 99.505 175.4 99.795 174.88 100.375C174.36 100.945 174.1 101.655 174.1 102.505C174.1 103.355 174.36 104.065 174.88 104.635C175.4 105.205 176.085 105.49 176.935 105.49ZM182.926 106V99.01H183.751V104.86L188.146 99.01H189.031V106H188.236V100.105H188.206L183.811 106H182.926ZM191.862 106V99.01H193.077L195.852 104.8L198.642 99.01H199.827V106H199.017V99.955H198.987L196.062 106H195.627L192.687 99.955V106H191.862ZM205.808 106.195C204.738 106.195 203.853 105.845 203.153 105.145C202.463 104.445 202.118 103.565 202.118 102.505C202.118 101.435 202.463 100.555 203.153 99.865C203.843 99.175 204.728 98.83 205.808 98.83C206.888 98.83 207.773 99.175 208.463 99.865C209.163 100.555 209.513 101.435 209.513 102.505C209.513 103.565 209.163 104.445 208.463 105.145C207.773 105.845 206.888 106.195 205.808 106.195ZM205.808 105.49C206.668 105.49 207.358 105.205 207.878 104.635C208.398 104.065 208.658 103.355 208.658 102.505C208.658 101.655 208.398 100.945 207.878 100.375C207.358 99.795 206.668 99.505 205.808 99.505C204.958 99.505 204.273 99.795 203.753 100.375C203.233 100.945 202.973 101.655 202.973 102.505C202.973 103.355 203.233 104.065 203.753 104.635C204.273 105.205 204.958 105.49 205.808 105.49ZM217.378 99.925L216.838 100.42C216.628 100.15 216.348 99.935 215.998 99.775C215.648 99.615 215.283 99.535 214.903 99.535C214.073 99.535 213.398 99.82 212.878 100.39C212.368 100.95 212.113 101.655 212.113 102.505C212.113 103.355 212.368 104.06 212.878 104.62C213.388 105.18 214.053 105.46 214.873 105.46C215.693 105.46 216.373 105.18 216.913 104.62L217.423 105.085C216.783 105.825 215.933 106.195 214.873 106.195C213.793 106.195 212.923 105.85 212.263 105.16C211.603 104.47 211.273 103.585 211.273 102.505C211.273 101.435 211.608 100.555 212.278 99.865C212.958 99.175 213.828 98.83 214.888 98.83C215.968 98.83 216.798 99.195 217.378 99.925ZM220.959 106V99.7H218.379V99.01H224.349V99.7H221.769V106H220.959ZM226.095 106V99.01H226.92V101.755H228.795C229.655 101.755 230.31 101.945 230.76 102.325C231.22 102.705 231.45 103.235 231.45 103.915C231.45 104.585 231.225 105.1 230.775 105.46C230.325 105.82 229.665 106 228.795 106H226.095ZM226.92 105.295H228.885C230.035 105.295 230.61 104.835 230.61 103.915C230.61 102.935 230.035 102.445 228.885 102.445H226.92V105.295ZM234.736 104.59L233.596 108.085H232.921L233.881 104.59H234.736ZM74.5716 124V117.01H80.3916V124H79.5816V117.7H75.3966V124H74.5716ZM86.3788 124.195C85.3088 124.195 84.4238 123.845 83.7238 123.145C83.0338 122.445 82.6888 121.565 82.6888 120.505C82.6888 119.435 83.0338 118.555 83.7238 117.865C84.4138 117.175 85.2988 116.83 86.3788 116.83C87.4588 116.83 88.3438 117.175 89.0338 117.865C89.7338 118.555 90.0838 119.435 90.0838 120.505C90.0838 121.565 89.7338 122.445 89.0338 123.145C88.3438 123.845 87.4588 124.195 86.3788 124.195ZM86.3788 123.49C87.2388 123.49 87.9288 123.205 88.4488 122.635C88.9688 122.065 89.2288 121.355 89.2288 120.505C89.2288 119.655 88.9688 118.945 88.4488 118.375C87.9288 117.795 87.2388 117.505 86.3788 117.505C85.5288 117.505 84.8438 117.795 84.3238 118.375C83.8038 118.945 83.5438 119.655 83.5438 120.505C83.5438 121.355 83.8038 122.065 84.3238 122.635C84.8438 123.205 85.5288 123.49 86.3788 123.49ZM94.3345 124.195C93.0845 124.195 92.1545 123.765 91.5445 122.905L92.1445 122.425C92.6545 123.135 93.3795 123.49 94.3195 123.49C94.8495 123.49 95.2945 123.37 95.6545 123.13C96.0145 122.89 96.1945 122.525 96.1945 122.035C96.1945 121.595 95.9995 121.26 95.6095 121.03C95.2195 120.8 94.7245 120.685 94.1245 120.685H93.5395V120.025H94.0645C94.6245 120.025 95.0845 119.91 95.4445 119.68C95.8045 119.44 95.9845 119.105 95.9845 118.675C95.9845 118.285 95.8245 117.995 95.5045 117.805C95.1945 117.605 94.7795 117.505 94.2595 117.505C93.8895 117.505 93.5345 117.59 93.1945 117.76C92.8645 117.93 92.6045 118.165 92.4145 118.465L91.7845 118.015C92.0145 117.635 92.3495 117.345 92.7895 117.145C93.2395 116.935 93.7395 116.83 94.2895 116.83C95.0395 116.83 95.6445 116.99 96.1045 117.31C96.5645 117.63 96.7945 118.085 96.7945 118.675C96.7945 119.085 96.6545 119.44 96.3745 119.74C96.1045 120.03 95.7495 120.22 95.3095 120.31V120.34C95.8195 120.41 96.2295 120.6 96.5395 120.91C96.8495 121.22 97.0045 121.605 97.0045 122.065C97.0045 122.725 96.7545 123.245 96.2545 123.625C95.7645 124.005 95.1245 124.195 94.3345 124.195ZM99.3275 124V117.01H102.462C103.082 117.01 103.607 117.145 104.037 117.415C104.467 117.685 104.682 118.135 104.682 118.765C104.682 119.155 104.562 119.485 104.322 119.755C104.082 120.025 103.777 120.205 103.407 120.295V120.31C103.867 120.37 104.252 120.555 104.562 120.865C104.872 121.165 105.027 121.57 105.027 122.08C105.027 122.69 104.797 123.165 104.337 123.505C103.877 123.835 103.277 124 102.537 124H99.3275ZM100.152 123.295H102.417C102.947 123.295 103.372 123.19 103.692 122.98C104.022 122.77 104.187 122.45 104.187 122.02C104.187 121.58 104.032 121.25 103.722 121.03C103.412 120.81 103.012 120.7 102.522 120.7H100.152V123.295ZM100.152 120.025H102.432C102.822 120.025 103.162 119.93 103.452 119.74C103.742 119.54 103.887 119.245 103.887 118.855C103.887 118.455 103.737 118.165 103.437 117.985C103.147 117.795 102.767 117.7 102.297 117.7H100.152V120.025ZM110.461 124.195C109.391 124.195 108.506 123.845 107.806 123.145C107.116 122.445 106.771 121.565 106.771 120.505C106.771 119.435 107.116 118.555 107.806 117.865C108.496 117.175 109.381 116.83 110.461 116.83C111.541 116.83 112.426 117.175 113.116 117.865C113.816 118.555 114.166 119.435 114.166 120.505C114.166 121.565 113.816 122.445 113.116 123.145C112.426 123.845 111.541 124.195 110.461 124.195ZM110.461 123.49C111.321 123.49 112.011 123.205 112.531 122.635C113.051 122.065 113.311 121.355 113.311 120.505C113.311 119.655 113.051 118.945 112.531 118.375C112.011 117.795 111.321 117.505 110.461 117.505C109.611 117.505 108.926 117.795 108.406 118.375C107.886 118.945 107.626 119.655 107.626 120.505C107.626 121.355 107.886 122.065 108.406 122.635C108.926 123.205 109.611 123.49 110.461 123.49ZM115.736 124.075C115.476 124.075 115.246 124.045 115.046 123.985L115.151 123.28C115.281 123.33 115.436 123.355 115.616 123.355C116.206 123.355 116.636 123.04 116.906 122.41C117.186 121.77 117.326 120.78 117.326 119.44V117.01H122.171V124H121.361V117.7H118.121V119.695C118.121 122.615 117.326 124.075 115.736 124.075ZM124.527 124L126.432 121.12C125.252 120.87 124.662 120.195 124.662 119.095C124.662 118.435 124.897 117.925 125.367 117.565C125.837 117.195 126.477 117.01 127.287 117.01H130.182V124H129.357V121.18H127.317L125.517 124H124.527ZM127.287 120.49H129.357V117.7H127.332C126.742 117.7 126.287 117.82 125.967 118.06C125.647 118.3 125.487 118.645 125.487 119.095C125.487 119.525 125.642 119.865 125.952 120.115C126.272 120.365 126.717 120.49 127.287 120.49ZM133.004 124V117.01H133.829V120.025H135.524C135.634 119.095 136.009 118.33 136.649 117.73C137.299 117.13 138.104 116.83 139.064 116.83C140.114 116.83 140.969 117.18 141.629 117.88C142.289 118.58 142.619 119.46 142.619 120.52C142.619 121.58 142.284 122.46 141.614 123.16C140.954 123.86 140.104 124.21 139.064 124.21C138.054 124.21 137.219 123.88 136.559 123.22C135.909 122.56 135.559 121.73 135.509 120.73L133.829 120.715V124H133.004ZM139.064 123.52C139.874 123.52 140.524 123.235 141.014 122.665C141.514 122.085 141.764 121.37 141.764 120.52C141.764 119.67 141.514 118.96 141.014 118.39C140.524 117.81 139.874 117.52 139.064 117.52C138.244 117.52 137.589 117.805 137.099 118.375C136.609 118.945 136.364 119.66 136.364 120.52C136.364 121.38 136.609 122.095 137.099 122.665C137.589 123.235 138.244 123.52 139.064 123.52ZM144.899 124V117.01H145.724V123.295H149.414V117.01H150.224V123.295H153.914V117.01H154.724V124H144.899ZM159.4 124.195C158.78 124.195 158.225 124.02 157.735 123.67C157.245 123.32 157 122.8 157 122.11C157 121.71 157.085 121.365 157.255 121.075C157.435 120.785 157.66 120.56 157.93 120.4C158.2 120.23 158.535 120.1 158.935 120.01C159.345 119.91 159.74 119.845 160.12 119.815C160.5 119.785 160.935 119.77 161.425 119.77H161.95V119.455C161.95 118.155 161.29 117.505 159.97 117.505C159.15 117.505 158.455 117.78 157.885 118.33L157.435 117.79C158.095 117.15 158.965 116.83 160.045 116.83C160.855 116.83 161.505 117.045 161.995 117.475C162.485 117.905 162.73 118.535 162.73 119.365V122.425C162.73 123.055 162.77 123.58 162.85 124H162.115C162.035 123.52 161.995 123.09 161.995 122.71H161.965C161.415 123.7 160.56 124.195 159.4 124.195ZM159.595 123.52C160.355 123.52 160.935 123.275 161.335 122.785C161.745 122.285 161.95 121.685 161.95 120.985V120.415H161.425C159.035 120.415 157.84 120.965 157.84 122.065C157.84 122.565 158.01 122.935 158.35 123.175C158.7 123.405 159.115 123.52 159.595 123.52ZM164.986 124L166.891 121.12C165.711 120.87 165.121 120.195 165.121 119.095C165.121 118.435 165.356 117.925 165.826 117.565C166.296 117.195 166.936 117.01 167.746 117.01H170.641V124H169.816V121.18H167.776L165.976 124H164.986ZM167.746 120.49H169.816V117.7H167.791C167.201 117.7 166.746 117.82 166.426 118.06C166.106 118.3 165.946 118.645 165.946 119.095C165.946 119.525 166.101 119.865 166.411 120.115C166.731 120.365 167.176 120.49 167.746 120.49ZM177.213 124V117.01H178.038V122.86L182.433 117.01H183.318V124H182.523V118.105H182.493L178.098 124H177.213ZM188.114 124.195C186.864 124.195 185.934 123.765 185.324 122.905L185.924 122.425C186.434 123.135 187.159 123.49 188.099 123.49C188.629 123.49 189.074 123.37 189.434 123.13C189.794 122.89 189.974 122.525 189.974 122.035C189.974 121.595 189.779 121.26 189.389 121.03C188.999 120.8 188.504 120.685 187.904 120.685H187.319V120.025H187.844C188.404 120.025 188.864 119.91 189.224 119.68C189.584 119.44 189.764 119.105 189.764 118.675C189.764 118.285 189.604 117.995 189.284 117.805C188.974 117.605 188.559 117.505 188.039 117.505C187.669 117.505 187.314 117.59 186.974 117.76C186.644 117.93 186.384 118.165 186.194 118.465L185.564 118.015C185.794 117.635 186.129 117.345 186.569 117.145C187.019 116.935 187.519 116.83 188.069 116.83C188.819 116.83 189.424 116.99 189.884 117.31C190.344 117.63 190.574 118.085 190.574 118.675C190.574 119.085 190.434 119.44 190.154 119.74C189.884 120.03 189.529 120.22 189.089 120.31V120.34C189.599 120.41 190.009 120.6 190.319 120.91C190.629 121.22 190.784 121.605 190.784 122.065C190.784 122.725 190.534 123.245 190.034 123.625C189.544 124.005 188.904 124.195 188.114 124.195ZM193.107 124V117.01H194.322L197.097 122.8L199.887 117.01H201.072V124H200.262V117.955H200.232L197.307 124H196.872L193.932 117.955V124H193.107ZM204.218 120.025H209.318C209.288 119.275 209.048 118.67 208.598 118.21C208.158 117.74 207.563 117.505 206.813 117.505C206.073 117.505 205.463 117.77 204.983 118.3C204.503 118.82 204.248 119.395 204.218 120.025ZM206.903 124.195C205.883 124.195 205.038 123.845 204.368 123.145C203.698 122.445 203.363 121.56 203.363 120.49C203.363 119.44 203.693 118.57 204.353 117.88C205.023 117.18 205.848 116.83 206.828 116.83C207.878 116.83 208.688 117.16 209.258 117.82C209.838 118.47 210.128 119.28 210.128 120.25V120.67H204.203C204.223 121.44 204.483 122.105 204.983 122.665C205.483 123.215 206.133 123.49 206.933 123.49C207.863 123.49 208.663 123.095 209.333 122.305L209.873 122.74C209.123 123.71 208.133 124.195 206.903 124.195ZM212.413 124V117.01H213.238V120.025H217.528V117.01H218.338V124H217.528V120.715H213.238V124H212.413ZM220.708 124L222.613 121.12C221.433 120.87 220.843 120.195 220.843 119.095C220.843 118.435 221.078 117.925 221.548 117.565C222.018 117.195 222.658 117.01 223.468 117.01H226.363V124H225.538V121.18H223.498L221.698 124H220.708ZM223.468 120.49H225.538V117.7H223.513C222.923 117.7 222.468 117.82 222.148 118.06C221.828 118.3 221.668 118.645 221.668 119.095C221.668 119.525 221.823 119.865 222.133 120.115C222.453 120.365 222.898 120.49 223.468 120.49ZM230.671 124V117.7H228.091V117.01H234.061V117.7H231.481V124H230.671ZM235.807 124V117.01H236.632V119.755H238.507C239.367 119.755 240.022 119.945 240.472 120.325C240.932 120.705 241.162 121.235 241.162 121.915C241.162 122.585 240.937 123.1 240.487 123.46C240.037 123.82 239.377 124 238.507 124H235.807ZM236.632 123.295H238.597C239.747 123.295 240.322 122.835 240.322 121.915C240.322 120.935 239.747 120.445 238.597 120.445H236.632V123.295ZM78.4597 135.925L77.9197 136.42C77.7097 136.15 77.4297 135.935 77.0797 135.775C76.7297 135.615 76.3647 135.535 75.9847 135.535C75.1547 135.535 74.4797 135.82 73.9597 136.39C73.4497 136.95 73.1947 137.655 73.1947 138.505C73.1947 139.355 73.4497 140.06 73.9597 140.62C74.4697 141.18 75.1347 141.46 75.9547 141.46C76.7747 141.46 77.4547 141.18 77.9947 140.62L78.5047 141.085C77.8647 141.825 77.0147 142.195 75.9547 142.195C74.8747 142.195 74.0047 141.85 73.3447 141.16C72.6847 140.47 72.3547 139.585 72.3547 138.505C72.3547 137.435 72.6897 136.555 73.3597 135.865C74.0397 135.175 74.9097 134.83 75.9697 134.83C77.0497 134.83 77.8797 135.195 78.4597 135.925ZM80.2918 142V135.01H83.4268C84.0468 135.01 84.5718 135.145 85.0018 135.415C85.4318 135.685 85.6468 136.135 85.6468 136.765C85.6468 137.155 85.5268 137.485 85.2868 137.755C85.0468 138.025 84.7418 138.205 84.3718 138.295V138.31C84.8318 138.37 85.2168 138.555 85.5268 138.865C85.8368 139.165 85.9918 139.57 85.9918 140.08C85.9918 140.69 85.7618 141.165 85.3018 141.505C84.8418 141.835 84.2418 142 83.5018 142H80.2918ZM81.1168 141.295H83.3818C83.9118 141.295 84.3368 141.19 84.6568 140.98C84.9868 140.77 85.1518 140.45 85.1518 140.02C85.1518 139.58 84.9968 139.25 84.6868 139.03C84.3768 138.81 83.9768 138.7 83.4868 138.7H81.1168V141.295ZM81.1168 138.025H83.3968C83.7868 138.025 84.1268 137.93 84.4168 137.74C84.7068 137.54 84.8518 137.245 84.8518 136.855C84.8518 136.455 84.7018 136.165 84.4018 135.985C84.1118 135.795 83.7318 135.7 83.2618 135.7H81.1168V138.025ZM91.4252 142.195C90.3552 142.195 89.4702 141.845 88.7702 141.145C88.0802 140.445 87.7352 139.565 87.7352 138.505C87.7352 137.435 88.0802 136.555 88.7702 135.865C89.4602 135.175 90.3452 134.83 91.4252 134.83C92.5052 134.83 93.3902 135.175 94.0802 135.865C94.7802 136.555 95.1302 137.435 95.1302 138.505C95.1302 139.565 94.7802 140.445 94.0802 141.145C93.3902 141.845 92.5052 142.195 91.4252 142.195ZM91.4252 141.49C92.2852 141.49 92.9752 141.205 93.4952 140.635C94.0152 140.065 94.2752 139.355 94.2752 138.505C94.2752 137.655 94.0152 136.945 93.4952 136.375C92.9752 135.795 92.2852 135.505 91.4252 135.505C90.5752 135.505 89.8902 135.795 89.3702 136.375C88.8502 136.945 88.5902 137.655 88.5902 138.505C88.5902 139.355 88.8502 140.065 89.3702 140.635C89.8902 141.205 90.5752 141.49 91.4252 141.49ZM101.886 132.865C101.516 133.205 101.041 133.375 100.461 133.375C99.8809 133.375 99.4009 133.205 99.0209 132.865C98.6509 132.515 98.4309 132.06 98.3609 131.5L98.9309 131.395C99.0009 131.815 99.1759 132.14 99.4559 132.37C99.7359 132.6 100.071 132.715 100.461 132.715C100.851 132.715 101.186 132.6 101.466 132.37C101.746 132.14 101.921 131.815 101.991 131.395L102.561 131.5C102.491 132.06 102.266 132.515 101.886 132.865ZM97.4159 142V135.01H98.2409V140.86L102.636 135.01H103.521V142H102.726V136.105H102.696L98.3009 142H97.4159ZM113.251 142.195C112.181 142.195 111.296 141.845 110.596 141.145C109.906 140.445 109.561 139.565 109.561 138.505C109.561 137.435 109.906 136.555 110.596 135.865C111.286 135.175 112.171 134.83 113.251 134.83C114.331 134.83 115.216 135.175 115.906 135.865C116.606 136.555 116.956 137.435 116.956 138.505C116.956 139.565 116.606 140.445 115.906 141.145C115.216 141.845 114.331 142.195 113.251 142.195ZM113.251 141.49C114.111 141.49 114.801 141.205 115.321 140.635C115.841 140.065 116.101 139.355 116.101 138.505C116.101 137.655 115.841 136.945 115.321 136.375C114.801 135.795 114.111 135.505 113.251 135.505C112.401 135.505 111.716 135.795 111.196 136.375C110.676 136.945 110.416 137.655 110.416 138.505C110.416 139.355 110.676 140.065 111.196 140.635C111.716 141.205 112.401 141.49 113.251 141.49ZM122.497 142.195C121.277 142.195 120.357 141.79 119.737 140.98C119.147 140.31 118.852 139.23 118.852 137.74C118.852 137.11 118.862 136.57 118.882 136.12C118.912 135.66 118.962 135.185 119.032 134.695C119.102 134.205 119.207 133.79 119.347 133.45C119.497 133.11 119.682 132.795 119.902 132.505C120.122 132.205 120.402 131.97 120.742 131.8C121.092 131.63 121.497 131.515 121.957 131.455L124.207 131.185C124.917 131.095 125.332 130.865 125.452 130.495L126.037 130.675C125.867 131.345 125.337 131.735 124.447 131.845L122.302 132.115C121.282 132.245 120.572 132.65 120.172 133.33C119.772 134.01 119.562 135.13 119.542 136.69H119.587C120.207 135.46 121.252 134.845 122.722 134.845C123.752 134.845 124.587 135.195 125.227 135.895C125.867 136.595 126.187 137.47 126.187 138.52C126.187 139.58 125.842 140.46 125.152 141.16C124.462 141.85 123.577 142.195 122.497 142.195ZM120.457 140.65C120.977 141.21 121.657 141.49 122.497 141.49C123.337 141.49 124.017 141.21 124.537 140.65C125.067 140.09 125.332 139.385 125.332 138.535C125.332 137.675 125.077 136.96 124.567 136.39C124.057 135.82 123.382 135.535 122.542 135.535C121.712 135.535 121.027 135.825 120.487 136.405C119.957 136.975 119.692 137.685 119.692 138.535C119.692 139.385 119.947 140.09 120.457 140.65ZM129.281 140.65V145.6H128.471V135.01H129.281V136.405H129.326C129.616 135.885 130.006 135.495 130.496 135.235C130.996 134.965 131.531 134.83 132.101 134.83C133.161 134.83 134.021 135.18 134.681 135.88C135.351 136.57 135.686 137.445 135.686 138.505C135.686 139.565 135.356 140.445 134.696 141.145C134.046 141.845 133.191 142.195 132.131 142.195C131.551 142.195 131.006 142.065 130.496 141.805C129.986 141.535 129.596 141.15 129.326 140.65H129.281ZM134.051 140.635C134.561 140.065 134.816 139.355 134.816 138.505C134.816 137.655 134.561 136.945 134.051 136.375C133.551 135.795 132.876 135.505 132.026 135.505C131.216 135.505 130.541 135.795 130.001 136.375C129.471 136.945 129.206 137.655 129.206 138.505C129.206 139.355 129.471 140.065 130.001 140.635C130.541 141.205 131.216 141.49 132.026 141.49C132.876 141.49 133.551 141.205 134.051 140.635ZM139.808 142.195C139.188 142.195 138.633 142.02 138.143 141.67C137.653 141.32 137.408 140.8 137.408 140.11C137.408 139.71 137.493 139.365 137.663 139.075C137.843 138.785 138.068 138.56 138.338 138.4C138.608 138.23 138.943 138.1 139.343 138.01C139.753 137.91 140.148 137.845 140.528 137.815C140.908 137.785 141.343 137.77 141.833 137.77H142.358V137.455C142.358 136.155 141.698 135.505 140.378 135.505C139.558 135.505 138.863 135.78 138.293 136.33L137.843 135.79C138.503 135.15 139.373 134.83 140.453 134.83C141.263 134.83 141.913 135.045 142.403 135.475C142.893 135.905 143.138 136.535 143.138 137.365V140.425C143.138 141.055 143.178 141.58 143.258 142H142.523C142.443 141.52 142.403 141.09 142.403 140.71H142.373C141.823 141.7 140.968 142.195 139.808 142.195ZM140.003 141.52C140.763 141.52 141.343 141.275 141.743 140.785C142.153 140.285 142.358 139.685 142.358 138.985V138.415H141.833C139.443 138.415 138.248 138.965 138.248 140.065C138.248 140.565 138.418 140.935 138.758 141.175C139.108 141.405 139.523 141.52 140.003 141.52ZM147.823 142.195C146.573 142.195 145.643 141.765 145.033 140.905L145.633 140.425C146.143 141.135 146.868 141.49 147.808 141.49C148.338 141.49 148.783 141.37 149.143 141.13C149.503 140.89 149.683 140.525 149.683 140.035C149.683 139.595 149.488 139.26 149.098 139.03C148.708 138.8 148.213 138.685 147.613 138.685H147.028V138.025H147.553C148.113 138.025 148.573 137.91 148.933 137.68C149.293 137.44 149.473 137.105 149.473 136.675C149.473 136.285 149.313 135.995 148.993 135.805C148.683 135.605 148.268 135.505 147.748 135.505C147.378 135.505 147.023 135.59 146.683 135.76C146.353 135.93 146.093 136.165 145.903 136.465L145.273 136.015C145.503 135.635 145.838 135.345 146.278 135.145C146.728 134.935 147.228 134.83 147.778 134.83C148.528 134.83 149.133 134.99 149.593 135.31C150.053 135.63 150.283 136.085 150.283 136.675C150.283 137.085 150.143 137.44 149.863 137.74C149.593 138.03 149.238 138.22 148.798 138.31V138.34C149.308 138.41 149.718 138.6 150.028 138.91C150.338 139.22 150.493 139.605 150.493 140.065C150.493 140.725 150.243 141.245 149.743 141.625C149.253 142.005 148.613 142.195 147.823 142.195ZM155.456 142L158.201 138.37L155.666 135.01H156.716L158.711 137.8L160.706 135.01H161.696L159.191 138.34L161.981 142H160.916L158.696 138.925L156.431 142H155.456ZM166.733 142.195C165.663 142.195 164.778 141.845 164.078 141.145C163.388 140.445 163.043 139.565 163.043 138.505C163.043 137.435 163.388 136.555 164.078 135.865C164.768 135.175 165.653 134.83 166.733 134.83C167.813 134.83 168.698 135.175 169.388 135.865C170.088 136.555 170.438 137.435 170.438 138.505C170.438 139.565 170.088 140.445 169.388 141.145C168.698 141.845 167.813 142.195 166.733 142.195ZM166.733 141.49C167.593 141.49 168.283 141.205 168.803 140.635C169.323 140.065 169.583 139.355 169.583 138.505C169.583 137.655 169.323 136.945 168.803 136.375C168.283 135.795 167.593 135.505 166.733 135.505C165.883 135.505 165.198 135.795 164.678 136.375C164.158 136.945 163.898 137.655 163.898 138.505C163.898 139.355 164.158 140.065 164.678 140.635C165.198 141.205 165.883 141.49 166.733 141.49ZM174.033 142V135.7H171.453V135.01H177.423V135.7H174.843V142H174.033ZM179.169 142V135.01H179.994V137.755H181.869C182.729 137.755 183.384 137.945 183.834 138.325C184.294 138.705 184.524 139.235 184.524 139.915C184.524 140.585 184.299 141.1 183.849 141.46C183.399 141.82 182.739 142 181.869 142H179.169ZM179.994 141.295H181.959C183.109 141.295 183.684 140.835 183.684 139.915C183.684 138.935 183.109 138.445 181.959 138.445H179.994V141.295ZM190.39 142V135.01H191.2V138.31H191.245L194.65 135.01H195.82L192.175 138.34L196.195 142H194.995L191.245 138.445H191.2V142H190.39ZM199.662 142.195C199.042 142.195 198.487 142.02 197.997 141.67C197.507 141.32 197.262 140.8 197.262 140.11C197.262 139.71 197.347 139.365 197.517 139.075C197.697 138.785 197.922 138.56 198.192 138.4C198.462 138.23 198.797 138.1 199.197 138.01C199.607 137.91 200.002 137.845 200.382 137.815C200.762 137.785 201.197 137.77 201.687 137.77H202.212V137.455C202.212 136.155 201.552 135.505 200.232 135.505C199.412 135.505 198.717 135.78 198.147 136.33L197.697 135.79C198.357 135.15 199.227 134.83 200.307 134.83C201.117 134.83 201.767 135.045 202.257 135.475C202.747 135.905 202.992 136.535 202.992 137.365V140.425C202.992 141.055 203.032 141.58 203.112 142H202.377C202.297 141.52 202.257 141.09 202.257 140.71H202.227C201.677 141.7 200.822 142.195 199.662 142.195ZM199.857 141.52C200.617 141.52 201.197 141.275 201.597 140.785C202.007 140.285 202.212 139.685 202.212 138.985V138.415H201.687C199.297 138.415 198.102 138.965 198.102 140.065C198.102 140.565 198.272 140.935 198.612 141.175C198.962 141.405 199.377 141.52 199.857 141.52ZM204.497 142L208.352 138.34L204.872 135.01H206.042L209.327 138.31H209.357V135.01H210.182V138.31H210.212L213.497 135.01H214.667L211.187 138.34L215.042 142H213.842L210.212 138.445H210.182V142H209.357V138.445H209.327L205.697 142H204.497ZM215.604 144.295V141.295H216.429C216.769 140.865 217.049 140.27 217.269 139.51C217.489 138.75 217.599 137.88 217.599 136.9V135.01H222.534V141.295H223.674V144.295H222.909V142H216.369V144.295H215.604ZM217.359 141.295H221.739V135.7H218.394V137.11C218.394 138.76 218.049 140.155 217.359 141.295ZM225.619 142V135.01H226.444V137.755H228.319C229.179 137.755 229.834 137.945 230.284 138.325C230.744 138.705 230.974 139.235 230.974 139.915C230.974 140.585 230.749 141.1 230.299 141.46C229.849 141.82 229.189 142 228.319 142H225.619ZM226.444 141.295H228.409C229.559 141.295 230.134 140.835 230.134 139.915C230.134 138.935 229.559 138.445 228.409 138.445H226.444V141.295ZM232.354 142V135.01H233.164V142H232.354ZM240.475 132.865C240.105 133.205 239.63 133.375 239.05 133.375C238.47 133.375 237.99 133.205 237.61 132.865C237.24 132.515 237.02 132.06 236.95 131.5L237.52 131.395C237.59 131.815 237.765 132.14 238.045 132.37C238.325 132.6 238.66 132.715 239.05 132.715C239.44 132.715 239.775 132.6 240.055 132.37C240.335 132.14 240.51 131.815 240.58 131.395L241.15 131.5C241.08 132.06 240.855 132.515 240.475 132.865ZM236.005 142V135.01H236.83V140.86L241.225 135.01H242.11V142H241.315V136.105H241.285L236.89 142H236.005ZM139.125 162.295V159.295H139.95C140.29 158.865 140.57 158.27 140.79 157.51C141.01 156.75 141.12 155.88 141.12 154.9V153.01H146.055V159.295H147.195V162.295H146.43V160H139.89V162.295H139.125ZM140.88 159.295H145.26V153.7H141.915V155.11C141.915 156.76 141.57 158.155 140.88 159.295ZM149.454 156.025H154.554C154.524 155.275 154.284 154.67 153.834 154.21C153.394 153.74 152.799 153.505 152.049 153.505C151.309 153.505 150.699 153.77 150.219 154.3C149.739 154.82 149.484 155.395 149.454 156.025ZM152.139 160.195C151.119 160.195 150.274 159.845 149.604 159.145C148.934 158.445 148.599 157.56 148.599 156.49C148.599 155.44 148.929 154.57 149.589 153.88C150.259 153.18 151.084 152.83 152.064 152.83C153.114 152.83 153.924 153.16 154.494 153.82C155.074 154.47 155.364 155.28 155.364 156.25V156.67H149.439C149.459 157.44 149.719 158.105 150.219 158.665C150.719 159.215 151.369 159.49 152.169 159.49C153.099 159.49 153.899 159.095 154.569 158.305L155.109 158.74C154.359 159.71 153.369 160.195 152.139 160.195ZM157.65 160V153.01H158.475V156.025H162.765V153.01H163.575V160H162.765V156.715H158.475V160H157.65ZM166.41 160V153.01H167.235V155.755H169.11C169.97 155.755 170.625 155.945 171.075 156.325C171.535 156.705 171.765 157.235 171.765 157.915C171.765 158.585 171.54 159.1 171.09 159.46C170.64 159.82 169.98 160 169.11 160H166.41ZM167.235 159.295H169.2C170.35 159.295 170.925 158.835 170.925 157.915C170.925 156.935 170.35 156.445 169.2 156.445H167.235V159.295ZM175.021 159.4C175.021 159.59 174.956 159.755 174.826 159.895C174.696 160.025 174.536 160.09 174.346 160.09C174.156 160.09 173.996 160.025 173.866 159.895C173.736 159.755 173.671 159.59 173.671 159.4C173.671 159.22 173.736 159.065 173.866 158.935C173.996 158.795 174.156 158.725 174.346 158.725C174.536 158.725 174.696 158.795 174.826 158.935C174.956 159.065 175.021 159.22 175.021 159.4Z" fill="black"/>
</svg>
