<svg width="1440" height="37" viewBox="0 0 1440 37" fill="none" xmlns="http://www.w3.org/2000/svg">
<path d="M46.5306 18.272C46.1466 19.9787 45.7733 21.792 45.4106 23.712C44.8026 23.712 43.6986 23.856 42.0986 24.144C40.0506 24.5173 38.536 24.704 37.5546 24.704C35.1226 24.704 32.9893 24.224 31.1546 23.264C29.32 22.304 27.8906 20.9333 26.8666 19.152C25.8426 17.36 25.3306 15.3707 25.3306 13.184C25.3306 11.0293 25.8693 9.04533 26.9466 7.232C28.0346 5.408 29.528 3.98933 31.4266 2.976C33.3253 1.96267 35.464 1.456 37.8426 1.456C38.8453 1.456 40.1893 1.56267 41.8746 1.776C43.1866 1.94667 44.1413 2.032 44.7386 2.032C44.8773 3.52533 45.1226 5.33867 45.4746 7.472C45.4746 7.64267 45.304 7.728 44.9626 7.728C44.7493 7.728 44.6213 7.64267 44.5786 7.472C44.1946 6.02133 43.368 4.82667 42.0986 3.888C40.8293 2.94933 39.368 2.48 37.7146 2.48C35.208 2.48 33.1013 3.51467 31.3946 5.584C29.6986 7.65333 28.8506 10.1867 28.8506 13.184C28.8506 16.096 29.6933 18.576 31.3786 20.624C33.064 22.6613 35.1226 23.68 37.5546 23.68C41.3626 23.68 44.0613 21.8773 45.6506 18.272C45.7253 18.1013 45.8693 18.016 46.0826 18.016C46.3813 18.016 46.5306 18.1013 46.5306 18.272ZM72.3986 13.184C72.3986 16.5653 71.3106 19.3333 69.1346 21.488C66.9586 23.632 64.116 24.704 60.6066 24.704C57.0973 24.704 54.2546 23.632 52.0786 21.488C49.9133 19.3333 48.8306 16.5653 48.8306 13.184C48.8306 9.792 49.924 6.992 52.1106 4.784C54.2973 2.56533 57.1293 1.456 60.6066 1.456C64.0946 1.456 66.932 2.56533 69.1186 4.784C71.3053 6.992 72.3986 9.792 72.3986 13.184ZM68.8786 13.184C68.8786 10.0373 68.116 7.46667 66.5906 5.472C65.076 3.47733 63.0813 2.48 60.6066 2.48C58.1213 2.48 56.1213 3.47733 54.6066 5.472C53.1026 7.46667 52.3506 10.0373 52.3506 13.184C52.3506 16.3093 53.0973 18.8427 54.5906 20.784C56.0946 22.7147 58.1 23.68 60.6066 23.68C63.1026 23.68 65.1026 22.7147 66.6066 20.784C68.1213 18.8427 68.8786 16.3093 68.8786 13.184ZM101.299 2.416C101.299 2.68266 101.214 2.82667 101.043 2.848C99.71 2.99733 98.7927 3.24267 98.2914 3.584C97.8007 3.92533 97.5447 4.58133 97.5234 5.552L97.1714 24.384C97.1714 24.5973 97.0434 24.704 96.7874 24.704C96.6594 24.704 96.4887 24.6187 96.2754 24.448L79.7794 5.808L79.5554 20.608C79.5447 20.6933 79.5394 20.7733 79.5394 20.848C79.5394 21.6587 79.7954 22.2347 80.3074 22.576C80.8194 22.9067 81.742 23.152 83.0754 23.312C83.246 23.3333 83.3314 23.4773 83.3314 23.744C83.3314 24.0427 83.246 24.192 83.0754 24.192C82.5207 24.192 81.758 24.16 80.7874 24.096C79.8807 24.032 79.182 24 78.6914 24C78.158 24 77.438 24.032 76.5314 24.096C75.6567 24.16 74.9794 24.192 74.4994 24.192C74.3287 24.192 74.2434 24.0427 74.2434 23.744C74.2434 23.4773 74.3394 23.3333 74.5314 23.312C75.854 23.152 76.7607 22.9067 77.2514 22.576C77.742 22.2347 78.0034 21.5787 78.0354 20.608L78.5954 5.552V5.408C78.5954 4.544 78.3447 3.94133 77.8434 3.6C77.342 3.25867 76.4087 3.00267 75.0434 2.832C74.894 2.832 74.8194 2.68267 74.8194 2.384C74.8194 2.08533 74.9047 1.936 75.0754 1.936C75.4487 1.936 75.9714 1.968 76.6434 2.032C77.2407 2.096 77.6887 2.128 77.9874 2.128C78.3607 2.128 78.8087 2.096 79.3314 2.032C79.8647 1.968 80.3234 1.936 80.7074 1.936L96.1154 19.168V5.552C96.1154 4.64533 95.854 4.01067 95.3314 3.648C94.8194 3.27467 93.8647 3.008 92.4674 2.848C92.2967 2.82667 92.2114 2.68266 92.2114 2.416C92.2114 2.11733 92.2967 1.968 92.4674 1.968C93.0434 1.968 93.8114 1.99467 94.7714 2.048C95.6674 2.10133 96.3607 2.128 96.8514 2.128C97.3847 2.128 98.1047 2.10133 99.0114 2.048C99.886 1.99467 100.563 1.968 101.043 1.968C101.214 1.968 101.299 2.11733 101.299 2.416ZM124.127 7.2C124.127 7.40267 123.935 7.504 123.551 7.504C123.38 7.504 123.273 7.42933 123.231 7.28C122.772 5.776 122.116 4.71467 121.263 4.096C120.409 3.46667 119.145 3.152 117.471 3.152H115.967C115.444 3.152 115.087 3.23733 114.895 3.408C114.703 3.57867 114.607 3.89867 114.607 4.368V20.608C114.607 21.344 114.697 21.8667 114.879 22.176C115.071 22.4747 115.401 22.7147 115.871 22.896C116.351 23.0667 117.033 23.2053 117.919 23.312C118.089 23.3333 118.175 23.4773 118.175 23.744C118.175 24.0427 118.089 24.192 117.919 24.192C117.204 24.192 116.351 24.16 115.359 24.096C114.42 24.032 113.636 24 113.007 24C112.356 24 111.556 24.032 110.607 24.096C109.615 24.16 108.761 24.192 108.047 24.192C107.876 24.192 107.791 24.0427 107.791 23.744C107.791 23.4773 107.876 23.3333 108.047 23.312C109.337 23.1627 110.212 22.9227 110.671 22.592C111.14 22.2613 111.375 21.6 111.375 20.608V4.368C111.375 3.89867 111.279 3.57867 111.087 3.408C110.895 3.23733 110.532 3.152 109.999 3.152H108.751C107.247 3.152 105.881 3.536 104.655 4.304C103.428 5.06133 102.628 6.048 102.255 7.264C102.201 7.424 102.084 7.504 101.903 7.504C101.54 7.504 101.359 7.38667 101.359 7.152C101.956 5.54133 102.521 3.71733 103.055 1.68C104.505 1.97867 107.823 2.128 113.007 2.128C118.329 2.128 121.716 1.97867 123.167 1.68C123.316 3.06667 123.636 4.90667 124.127 7.2ZM147.581 23.744C147.581 24.0427 147.495 24.192 147.325 24.192C146.589 24.192 145.757 24.16 144.829 24.096C144.029 24.032 143.346 24 142.781 24C142.13 24 141.325 24.032 140.365 24.096C139.351 24.16 138.487 24.192 137.773 24.192C137.602 24.192 137.517 24.0427 137.517 23.744C137.517 23.4453 137.581 23.296 137.709 23.296C138.658 23.2533 139.341 23.1307 139.757 22.928C140.173 22.7147 140.381 22.3893 140.381 21.952C140.381 21.6747 140.274 21.232 140.061 20.624L138.253 15.264H131.661L129.837 20.224C129.602 20.8853 129.485 21.3973 129.485 21.76C129.485 22.6987 130.349 23.2107 132.077 23.296C132.205 23.296 132.269 23.4453 132.269 23.744C132.269 24.0427 132.183 24.192 132.013 24.192C131.373 24.192 130.663 24.16 129.885 24.096C129.149 24.032 128.493 24 127.917 24C127.458 24 126.882 24.032 126.189 24.096C125.463 24.16 124.845 24.192 124.333 24.192C124.173 24.192 124.093 24.0587 124.093 23.792C124.093 23.4933 124.215 23.3333 124.461 23.312C125.346 23.2267 126.045 22.9813 126.557 22.576C127.079 22.1707 127.618 21.344 128.173 20.096L135.661 1.712C135.725 1.54133 135.874 1.456 136.109 1.456C136.365 1.456 136.525 1.536 136.589 1.696L143.197 20.096C143.57 21.1307 144.071 21.8933 144.701 22.384C145.341 22.8747 146.194 23.184 147.261 23.312C147.474 23.3333 147.581 23.4773 147.581 23.744ZM137.901 14.24L135.085 6.064L132.045 14.24H137.901ZM170.281 18.272C169.897 19.9787 169.523 21.792 169.161 23.712C168.553 23.712 167.449 23.856 165.849 24.144C163.801 24.5173 162.286 24.704 161.305 24.704C158.873 24.704 156.739 24.224 154.905 23.264C153.07 22.304 151.641 20.9333 150.617 19.152C149.593 17.36 149.081 15.3707 149.081 13.184C149.081 11.0293 149.619 9.04533 150.697 7.232C151.785 5.408 153.278 3.98933 155.177 2.976C157.075 1.96267 159.214 1.456 161.593 1.456C162.595 1.456 163.939 1.56267 165.625 1.776C166.937 1.94667 167.891 2.032 168.489 2.032C168.627 3.52533 168.873 5.33867 169.225 7.472C169.225 7.64267 169.054 7.728 168.713 7.728C168.499 7.728 168.371 7.64267 168.329 7.472C167.945 6.02133 167.118 4.82667 165.849 3.888C164.579 2.94933 163.118 2.48 161.465 2.48C158.958 2.48 156.851 3.51467 155.145 5.584C153.449 7.65333 152.601 10.1867 152.601 13.184C152.601 16.096 153.443 18.576 155.129 20.624C156.814 22.6613 158.873 23.68 161.305 23.68C165.113 23.68 167.811 21.8773 169.401 18.272C169.475 18.1013 169.619 18.016 169.833 18.016C170.131 18.016 170.281 18.1013 170.281 18.272ZM193.877 7.2C193.877 7.40267 193.685 7.504 193.301 7.504C193.13 7.504 193.023 7.42933 192.981 7.28C192.522 5.776 191.866 4.71467 191.013 4.096C190.159 3.46667 188.895 3.152 187.221 3.152H185.717C185.194 3.152 184.837 3.23733 184.645 3.408C184.453 3.57867 184.357 3.89867 184.357 4.368V20.608C184.357 21.344 184.447 21.8667 184.629 22.176C184.821 22.4747 185.151 22.7147 185.621 22.896C186.101 23.0667 186.783 23.2053 187.669 23.312C187.839 23.3333 187.925 23.4773 187.925 23.744C187.925 24.0427 187.839 24.192 187.669 24.192C186.954 24.192 186.101 24.16 185.109 24.096C184.17 24.032 183.386 24 182.757 24C182.106 24 181.306 24.032 180.357 24.096C179.365 24.16 178.511 24.192 177.797 24.192C177.626 24.192 177.541 24.0427 177.541 23.744C177.541 23.4773 177.626 23.3333 177.797 23.312C179.087 23.1627 179.962 22.9227 180.421 22.592C180.89 22.2613 181.125 21.6 181.125 20.608V4.368C181.125 3.89867 181.029 3.57867 180.837 3.408C180.645 3.23733 180.282 3.152 179.749 3.152H178.501C176.997 3.152 175.631 3.536 174.405 4.304C173.178 5.06133 172.378 6.048 172.005 7.264C171.951 7.424 171.834 7.504 171.653 7.504C171.29 7.504 171.109 7.38667 171.109 7.152C171.706 5.54133 172.271 3.71733 172.805 1.68C174.255 1.97867 177.573 2.128 182.757 2.128C188.079 2.128 191.466 1.97867 192.917 1.68C193.066 3.06667 193.386 4.90667 193.877 7.2ZM208.947 17.76C208.947 19.8827 208.317 21.5733 207.059 22.832C205.8 24.08 204.099 24.704 201.955 24.704C201.005 24.704 199.869 24.5333 198.547 24.192C197.341 23.872 196.355 23.712 195.587 23.712C195.523 21.8987 195.395 20.0853 195.203 18.272C195.203 18.1013 195.363 18.016 195.683 18.016C195.907 18.016 196.045 18.1013 196.099 18.272C196.675 20.256 197.411 21.6533 198.307 22.464C199.203 23.2747 200.461 23.68 202.083 23.68C203.373 23.68 204.371 23.3067 205.075 22.56C205.789 21.8133 206.147 20.768 206.147 19.424C206.147 18.56 205.837 17.76 205.219 17.024C204.6 16.2773 203.283 15.3173 201.267 14.144C198.952 12.8107 197.437 11.68 196.723 10.752C196.008 9.824 195.651 8.79467 195.651 7.664C195.651 5.92533 196.291 4.45867 197.571 3.264C198.861 2.05867 200.493 1.456 202.467 1.456C203.213 1.456 204.072 1.55733 205.043 1.76C205.949 1.94133 206.733 2.032 207.395 2.032C207.523 3.90933 207.693 5.56267 207.907 6.992C207.907 7.16267 207.768 7.248 207.491 7.248C207.192 7.248 207.027 7.16267 206.995 6.992C206.643 5.392 206.109 4.24 205.395 3.536C204.68 2.832 203.693 2.48 202.435 2.48C201.24 2.48 200.291 2.832 199.587 3.536C198.883 4.24 198.531 5.18933 198.531 6.384C198.531 7.14133 198.824 7.86667 199.411 8.56C200.008 9.24267 201.293 10.16 203.267 11.312C205.603 12.6773 207.133 13.8187 207.859 14.736C208.584 15.6533 208.947 16.6613 208.947 17.76Z" fill="black"/>
<path d="M1004.69 18.2427C1004.31 19.9494 1003.94 21.7627 1003.57 23.6827C1002.96 23.6827 1001.86 23.8267 1000.26 24.1147C998.213 24.488 996.698 24.6747 995.717 24.6747C993.285 24.6747 991.151 24.1947 989.317 23.2347C987.482 22.2747 986.053 20.904 985.029 19.1227C984.005 17.3307 983.493 15.3414 983.493 13.1547C983.493 11 984.031 9.01604 985.109 7.2027C986.197 5.3787 987.69 3.96004 989.589 2.9467C991.487 1.93337 993.626 1.4267 996.005 1.4267C997.007 1.4267 998.351 1.53337 1000.04 1.7467C1001.35 1.91737 1002.3 2.0027 1002.9 2.0027C1003.04 3.49604 1003.28 5.30937 1003.64 7.4427C1003.64 7.61337 1003.47 7.6987 1003.12 7.6987C1002.91 7.6987 1002.78 7.61337 1002.74 7.4427C1002.36 5.99204 1001.53 4.79737 1000.26 3.8587C998.991 2.92004 997.53 2.4507 995.877 2.4507C993.37 2.4507 991.263 3.48537 989.557 5.5547C987.861 7.62404 987.013 10.1574 987.013 13.1547C987.013 16.0667 987.855 18.5467 989.541 20.5947C991.226 22.632 993.285 23.6507 995.717 23.6507C999.525 23.6507 1002.22 21.848 1003.81 18.2427C1003.89 18.072 1004.03 17.9867 1004.24 17.9867C1004.54 17.9867 1004.69 18.072 1004.69 18.2427ZM1030.56 13.1547C1030.56 16.536 1029.47 19.304 1027.3 21.4587C1025.12 23.6027 1022.28 24.6747 1018.77 24.6747C1015.26 24.6747 1012.42 23.6027 1010.24 21.4587C1008.08 19.304 1006.99 16.536 1006.99 13.1547C1006.99 9.7627 1008.09 6.9627 1010.27 4.7547C1012.46 2.53604 1015.29 1.4267 1018.77 1.4267C1022.26 1.4267 1025.09 2.53604 1027.28 4.7547C1029.47 6.9627 1030.56 9.7627 1030.56 13.1547ZM1027.04 13.1547C1027.04 10.008 1026.28 7.43737 1024.75 5.4427C1023.24 3.44804 1021.24 2.4507 1018.77 2.4507C1016.28 2.4507 1014.28 3.44804 1012.77 5.4427C1011.26 7.43737 1010.51 10.008 1010.51 13.1547C1010.51 16.28 1011.26 18.8134 1012.75 20.7547C1014.26 22.6854 1016.26 23.6507 1018.77 23.6507C1021.26 23.6507 1023.26 22.6854 1024.77 20.7547C1026.28 18.8134 1027.04 16.28 1027.04 13.1547ZM1059.46 2.3867C1059.46 2.65337 1059.38 2.79737 1059.21 2.8187C1057.87 2.96804 1056.95 3.21337 1056.45 3.5547C1055.96 3.89604 1055.71 4.55204 1055.69 5.5227L1055.33 24.3547C1055.33 24.568 1055.21 24.6747 1054.95 24.6747C1054.82 24.6747 1054.65 24.5894 1054.44 24.4187L1037.94 5.7787L1037.72 20.5787C1037.71 20.664 1037.7 20.744 1037.7 20.8187C1037.7 21.6294 1037.96 22.2054 1038.47 22.5467C1038.98 22.8774 1039.9 23.1227 1041.24 23.2827C1041.41 23.304 1041.49 23.448 1041.49 23.7147C1041.49 24.0134 1041.41 24.1627 1041.24 24.1627C1040.68 24.1627 1039.92 24.1307 1038.95 24.0667C1038.04 24.0027 1037.34 23.9707 1036.85 23.9707C1036.32 23.9707 1035.6 24.0027 1034.69 24.0667C1033.82 24.1307 1033.14 24.1627 1032.66 24.1627C1032.49 24.1627 1032.41 24.0134 1032.41 23.7147C1032.41 23.448 1032.5 23.304 1032.69 23.2827C1034.02 23.1227 1034.92 22.8774 1035.41 22.5467C1035.9 22.2054 1036.17 21.5494 1036.2 20.5787L1036.76 5.5227V5.3787C1036.76 4.5147 1036.51 3.91204 1036.01 3.5707C1035.5 3.22937 1034.57 2.97337 1033.21 2.8027C1033.06 2.8027 1032.98 2.65337 1032.98 2.3547C1032.98 2.05604 1033.07 1.9067 1033.24 1.9067C1033.61 1.9067 1034.13 1.9387 1034.81 2.0027C1035.4 2.0667 1035.85 2.0987 1036.15 2.0987C1036.52 2.0987 1036.97 2.0667 1037.49 2.0027C1038.03 1.9387 1038.49 1.9067 1038.87 1.9067L1054.28 19.1387V5.5227C1054.28 4.61604 1054.02 3.98137 1053.49 3.6187C1052.98 3.24537 1052.03 2.9787 1050.63 2.8187C1050.46 2.79737 1050.37 2.65337 1050.37 2.3867C1050.37 2.08803 1050.46 1.9387 1050.63 1.9387C1051.21 1.9387 1051.97 1.96537 1052.93 2.0187C1053.83 2.07203 1054.52 2.0987 1055.01 2.0987C1055.55 2.0987 1056.27 2.07203 1057.17 2.0187C1058.05 1.96537 1058.73 1.9387 1059.21 1.9387C1059.38 1.9387 1059.46 2.08803 1059.46 2.3867ZM1082.29 7.1707C1082.29 7.37337 1082.1 7.4747 1081.71 7.4747C1081.54 7.4747 1081.44 7.40004 1081.39 7.2507C1080.93 5.7467 1080.28 4.68537 1079.42 4.0667C1078.57 3.43737 1077.31 3.1227 1075.63 3.1227H1074.13C1073.61 3.1227 1073.25 3.20804 1073.06 3.3787C1072.86 3.54937 1072.77 3.86937 1072.77 4.3387V20.5787C1072.77 21.3147 1072.86 21.8374 1073.04 22.1467C1073.23 22.4454 1073.56 22.6854 1074.03 22.8667C1074.51 23.0374 1075.2 23.176 1076.08 23.2827C1076.25 23.304 1076.34 23.448 1076.34 23.7147C1076.34 24.0134 1076.25 24.1627 1076.08 24.1627C1075.37 24.1627 1074.51 24.1307 1073.52 24.0667C1072.58 24.0027 1071.8 23.9707 1071.17 23.9707C1070.52 23.9707 1069.72 24.0027 1068.77 24.0667C1067.78 24.1307 1066.92 24.1627 1066.21 24.1627C1066.04 24.1627 1065.95 24.0134 1065.95 23.7147C1065.95 23.448 1066.04 23.304 1066.21 23.2827C1067.5 23.1334 1068.37 22.8934 1068.83 22.5627C1069.3 22.232 1069.54 21.5707 1069.54 20.5787V4.3387C1069.54 3.86937 1069.44 3.54937 1069.25 3.3787C1069.06 3.20804 1068.69 3.1227 1068.16 3.1227H1066.91C1065.41 3.1227 1064.04 3.5067 1062.82 4.2747C1061.59 5.03204 1060.79 6.0187 1060.42 7.2347C1060.36 7.3947 1060.25 7.4747 1060.06 7.4747C1059.7 7.4747 1059.52 7.35737 1059.52 7.1227C1060.12 5.51203 1060.68 3.68803 1061.22 1.6507C1062.67 1.94937 1065.98 2.0987 1071.17 2.0987C1076.49 2.0987 1079.88 1.94937 1081.33 1.6507C1081.48 3.03737 1081.8 4.87737 1082.29 7.1707ZM1105.74 23.7147C1105.74 24.0134 1105.66 24.1627 1105.49 24.1627C1104.75 24.1627 1103.92 24.1307 1102.99 24.0667C1102.19 24.0027 1101.51 23.9707 1100.94 23.9707C1100.29 23.9707 1099.49 24.0027 1098.53 24.0667C1097.51 24.1307 1096.65 24.1627 1095.93 24.1627C1095.76 24.1627 1095.68 24.0134 1095.68 23.7147C1095.68 23.416 1095.74 23.2667 1095.87 23.2667C1096.82 23.224 1097.5 23.1014 1097.92 22.8987C1098.33 22.6854 1098.54 22.36 1098.54 21.9227C1098.54 21.6454 1098.44 21.2027 1098.22 20.5947L1096.41 15.2347H1089.82L1088 20.1947C1087.76 20.856 1087.65 21.368 1087.65 21.7307C1087.65 22.6694 1088.51 23.1814 1090.24 23.2667C1090.37 23.2667 1090.43 23.416 1090.43 23.7147C1090.43 24.0134 1090.35 24.1627 1090.17 24.1627C1089.53 24.1627 1088.83 24.1307 1088.05 24.0667C1087.31 24.0027 1086.65 23.9707 1086.08 23.9707C1085.62 23.9707 1085.04 24.0027 1084.35 24.0667C1083.63 24.1307 1083.01 24.1627 1082.49 24.1627C1082.33 24.1627 1082.25 24.0294 1082.25 23.7627C1082.25 23.464 1082.38 23.304 1082.62 23.2827C1083.51 23.1974 1084.21 22.952 1084.72 22.5467C1085.24 22.1414 1085.78 21.3147 1086.33 20.0667L1093.82 1.6827C1093.89 1.51204 1094.04 1.4267 1094.27 1.4267C1094.53 1.4267 1094.69 1.5067 1094.75 1.6667L1101.36 20.0667C1101.73 21.1014 1102.23 21.864 1102.86 22.3547C1103.5 22.8454 1104.36 23.1547 1105.42 23.2827C1105.64 23.304 1105.74 23.448 1105.74 23.7147ZM1096.06 14.2107L1093.25 6.0347L1090.21 14.2107H1096.06ZM1128.44 18.2427C1128.06 19.9494 1127.69 21.7627 1127.32 23.6827C1126.71 23.6827 1125.61 23.8267 1124.01 24.1147C1121.96 24.488 1120.45 24.6747 1119.47 24.6747C1117.03 24.6747 1114.9 24.1947 1113.07 23.2347C1111.23 22.2747 1109.8 20.904 1108.78 19.1227C1107.75 17.3307 1107.24 15.3414 1107.24 13.1547C1107.24 11 1107.78 9.01604 1108.86 7.2027C1109.95 5.3787 1111.44 3.96004 1113.34 2.9467C1115.24 1.93337 1117.38 1.4267 1119.75 1.4267C1120.76 1.4267 1122.1 1.53337 1123.79 1.7467C1125.1 1.91737 1126.05 2.0027 1126.65 2.0027C1126.79 3.49604 1127.03 5.30937 1127.39 7.4427C1127.39 7.61337 1127.22 7.6987 1126.87 7.6987C1126.66 7.6987 1126.53 7.61337 1126.49 7.4427C1126.11 5.99204 1125.28 4.79737 1124.01 3.8587C1122.74 2.92004 1121.28 2.4507 1119.63 2.4507C1117.12 2.4507 1115.01 3.48537 1113.31 5.5547C1111.61 7.62404 1110.76 10.1574 1110.76 13.1547C1110.76 16.0667 1111.61 18.5467 1113.29 20.5947C1114.98 22.632 1117.03 23.6507 1119.47 23.6507C1123.27 23.6507 1125.97 21.848 1127.56 18.2427C1127.64 18.072 1127.78 17.9867 1127.99 17.9867C1128.29 17.9867 1128.44 18.072 1128.44 18.2427ZM1152.04 7.1707C1152.04 7.37337 1151.85 7.4747 1151.46 7.4747C1151.29 7.4747 1151.19 7.40004 1151.14 7.2507C1150.68 5.7467 1150.03 4.68537 1149.17 4.0667C1148.32 3.43737 1147.06 3.1227 1145.38 3.1227H1143.88C1143.36 3.1227 1143 3.20804 1142.81 3.3787C1142.61 3.54937 1142.52 3.86937 1142.52 4.3387V20.5787C1142.52 21.3147 1142.61 21.8374 1142.79 22.1467C1142.98 22.4454 1143.31 22.6854 1143.78 22.8667C1144.26 23.0374 1144.95 23.176 1145.83 23.2827C1146 23.304 1146.09 23.448 1146.09 23.7147C1146.09 24.0134 1146 24.1627 1145.83 24.1627C1145.12 24.1627 1144.26 24.1307 1143.27 24.0667C1142.33 24.0027 1141.55 23.9707 1140.92 23.9707C1140.27 23.9707 1139.47 24.0027 1138.52 24.0667C1137.53 24.1307 1136.67 24.1627 1135.96 24.1627C1135.79 24.1627 1135.7 24.0134 1135.7 23.7147C1135.7 23.448 1135.79 23.304 1135.96 23.2827C1137.25 23.1334 1138.12 22.8934 1138.58 22.5627C1139.05 22.232 1139.29 21.5707 1139.29 20.5787V4.3387C1139.29 3.86937 1139.19 3.54937 1139 3.3787C1138.81 3.20804 1138.44 3.1227 1137.91 3.1227H1136.66C1135.16 3.1227 1133.79 3.5067 1132.57 4.2747C1131.34 5.03204 1130.54 6.0187 1130.17 7.2347C1130.11 7.3947 1130 7.4747 1129.81 7.4747C1129.45 7.4747 1129.27 7.35737 1129.27 7.1227C1129.87 5.51203 1130.43 3.68803 1130.97 1.6507C1132.42 1.94937 1135.73 2.0987 1140.92 2.0987C1146.24 2.0987 1149.63 1.94937 1151.08 1.6507C1151.23 3.03737 1151.55 4.87737 1152.04 7.1707ZM1167.11 17.7307C1167.11 19.8534 1166.48 21.544 1165.22 22.8027C1163.96 24.0507 1162.26 24.6747 1160.12 24.6747C1159.17 24.6747 1158.03 24.504 1156.71 24.1627C1155.5 23.8427 1154.52 23.6827 1153.75 23.6827C1153.68 21.8694 1153.56 20.056 1153.36 18.2427C1153.36 18.072 1153.52 17.9867 1153.84 17.9867C1154.07 17.9867 1154.21 18.072 1154.26 18.2427C1154.84 20.2267 1155.57 21.624 1156.47 22.4347C1157.36 23.2454 1158.62 23.6507 1160.24 23.6507C1161.54 23.6507 1162.53 23.2774 1163.24 22.5307C1163.95 21.784 1164.31 20.7387 1164.31 19.3947C1164.31 18.5307 1164 17.7307 1163.38 16.9947C1162.76 16.248 1161.44 15.288 1159.43 14.1147C1157.11 12.7814 1155.6 11.6507 1154.88 10.7227C1154.17 9.7947 1153.81 8.76537 1153.81 7.6347C1153.81 5.89604 1154.45 4.42937 1155.73 3.2347C1157.02 2.02937 1158.66 1.4267 1160.63 1.4267C1161.38 1.4267 1162.23 1.52804 1163.2 1.7307C1164.11 1.91204 1164.9 2.0027 1165.56 2.0027C1165.68 3.88004 1165.86 5.53337 1166.07 6.9627C1166.07 7.13337 1165.93 7.2187 1165.65 7.2187C1165.35 7.2187 1165.19 7.13337 1165.16 6.9627C1164.8 5.3627 1164.27 4.2107 1163.56 3.5067C1162.84 2.8027 1161.86 2.4507 1160.6 2.4507C1159.4 2.4507 1158.45 2.8027 1157.75 3.5067C1157.04 4.2107 1156.69 5.16004 1156.69 6.3547C1156.69 7.11204 1156.99 7.83737 1157.57 8.5307C1158.17 9.21337 1159.46 10.1307 1161.43 11.2827C1163.76 12.648 1165.3 13.7894 1166.02 14.7067C1166.75 15.624 1167.11 16.632 1167.11 17.7307Z" fill="black"/>
<path d="M525.269 18.2427C524.885 19.9494 524.511 21.7627 524.149 23.6827C523.541 23.6827 522.437 23.8267 520.837 24.1147C518.789 24.488 517.274 24.6747 516.293 24.6747C513.861 24.6747 511.727 24.1947 509.893 23.2347C508.058 22.2747 506.629 20.904 505.605 19.1227C504.581 17.3307 504.069 15.3414 504.069 13.1547C504.069 11 504.607 9.01604 505.685 7.2027C506.773 5.3787 508.266 3.96004 510.165 2.9467C512.063 1.93337 514.202 1.4267 516.581 1.4267C517.583 1.4267 518.927 1.53337 520.613 1.7467C521.925 1.91737 522.879 2.0027 523.477 2.0027C523.615 3.49604 523.861 5.30937 524.213 7.4427C524.213 7.61337 524.042 7.6987 523.701 7.6987C523.487 7.6987 523.359 7.61337 523.317 7.4427C522.933 5.99204 522.106 4.79737 520.837 3.8587C519.567 2.92004 518.106 2.4507 516.453 2.4507C513.946 2.4507 511.839 3.48537 510.133 5.5547C508.437 7.62404 507.589 10.1574 507.589 13.1547C507.589 16.0667 508.431 18.5467 510.117 20.5947C511.802 22.632 513.861 23.6507 516.293 23.6507C520.101 23.6507 522.799 21.848 524.389 18.2427C524.463 18.072 524.607 17.9867 524.821 17.9867C525.119 17.9867 525.269 18.072 525.269 18.2427ZM551.137 13.1547C551.137 16.536 550.049 19.304 547.873 21.4587C545.697 23.6027 542.854 24.6747 539.345 24.6747C535.835 24.6747 532.993 23.6027 530.817 21.4587C528.651 19.304 527.569 16.536 527.569 13.1547C527.569 9.7627 528.662 6.9627 530.849 4.7547C533.035 2.53604 535.867 1.4267 539.345 1.4267C542.833 1.4267 545.67 2.53604 547.857 4.7547C550.043 6.9627 551.137 9.7627 551.137 13.1547ZM547.617 13.1547C547.617 10.008 546.854 7.43737 545.329 5.4427C543.814 3.44804 541.819 2.4507 539.345 2.4507C536.859 2.4507 534.859 3.44804 533.345 5.4427C531.841 7.43737 531.089 10.008 531.089 13.1547C531.089 16.28 531.835 18.8134 533.329 20.7547C534.833 22.6854 536.838 23.6507 539.345 23.6507C541.841 23.6507 543.841 22.6854 545.345 20.7547C546.859 18.8134 547.617 16.28 547.617 13.1547ZM580.037 2.3867C580.037 2.65337 579.952 2.79737 579.781 2.8187C578.448 2.96804 577.531 3.21337 577.029 3.5547C576.539 3.89604 576.283 4.55204 576.261 5.5227L575.909 24.3547C575.909 24.568 575.781 24.6747 575.525 24.6747C575.397 24.6747 575.227 24.5894 575.013 24.4187L558.517 5.7787L558.293 20.5787C558.283 20.664 558.277 20.744 558.277 20.8187C558.277 21.6294 558.533 22.2054 559.045 22.5467C559.557 22.8774 560.48 23.1227 561.813 23.2827C561.984 23.304 562.069 23.448 562.069 23.7147C562.069 24.0134 561.984 24.1627 561.813 24.1627C561.259 24.1627 560.496 24.1307 559.525 24.0667C558.619 24.0027 557.92 23.9707 557.429 23.9707C556.896 23.9707 556.176 24.0027 555.269 24.0667C554.395 24.1307 553.717 24.1627 553.237 24.1627C553.067 24.1627 552.981 24.0134 552.981 23.7147C552.981 23.448 553.077 23.304 553.269 23.2827C554.592 23.1227 555.499 22.8774 555.989 22.5467C556.48 22.2054 556.741 21.5494 556.773 20.5787L557.333 5.5227V5.3787C557.333 4.5147 557.083 3.91204 556.581 3.5707C556.08 3.22937 555.147 2.97337 553.781 2.8027C553.632 2.8027 553.557 2.65337 553.557 2.3547C553.557 2.05604 553.643 1.9067 553.813 1.9067C554.187 1.9067 554.709 1.9387 555.381 2.0027C555.979 2.0667 556.427 2.0987 556.725 2.0987C557.099 2.0987 557.547 2.0667 558.069 2.0027C558.603 1.9387 559.061 1.9067 559.445 1.9067L574.853 19.1387V5.5227C574.853 4.61604 574.592 3.98137 574.069 3.6187C573.557 3.24537 572.603 2.9787 571.205 2.8187C571.035 2.79737 570.949 2.65337 570.949 2.3867C570.949 2.08803 571.035 1.9387 571.205 1.9387C571.781 1.9387 572.549 1.96537 573.509 2.0187C574.405 2.07203 575.099 2.0987 575.589 2.0987C576.123 2.0987 576.843 2.07203 577.749 2.0187C578.624 1.96537 579.301 1.9387 579.781 1.9387C579.952 1.9387 580.037 2.08803 580.037 2.3867ZM602.865 7.1707C602.865 7.37337 602.673 7.4747 602.289 7.4747C602.118 7.4747 602.011 7.40004 601.969 7.2507C601.51 5.7467 600.854 4.68537 600.001 4.0667C599.147 3.43737 597.883 3.1227 596.209 3.1227H594.705C594.182 3.1227 593.825 3.20804 593.633 3.3787C593.441 3.54937 593.345 3.86937 593.345 4.3387V20.5787C593.345 21.3147 593.435 21.8374 593.617 22.1467C593.809 22.4454 594.139 22.6854 594.609 22.8667C595.089 23.0374 595.771 23.176 596.657 23.2827C596.827 23.304 596.913 23.448 596.913 23.7147C596.913 24.0134 596.827 24.1627 596.657 24.1627C595.942 24.1627 595.089 24.1307 594.097 24.0667C593.158 24.0027 592.374 23.9707 591.745 23.9707C591.094 23.9707 590.294 24.0027 589.345 24.0667C588.353 24.1307 587.499 24.1627 586.785 24.1627C586.614 24.1627 586.529 24.0134 586.529 23.7147C586.529 23.448 586.614 23.304 586.785 23.2827C588.075 23.1334 588.95 22.8934 589.409 22.5627C589.878 22.232 590.113 21.5707 590.113 20.5787V4.3387C590.113 3.86937 590.017 3.54937 589.825 3.3787C589.633 3.20804 589.27 3.1227 588.737 3.1227H587.489C585.985 3.1227 584.619 3.5067 583.393 4.2747C582.166 5.03204 581.366 6.0187 580.993 7.2347C580.939 7.3947 580.822 7.4747 580.641 7.4747C580.278 7.4747 580.097 7.35737 580.097 7.1227C580.694 5.51203 581.259 3.68803 581.793 1.6507C583.243 1.94937 586.561 2.0987 591.745 2.0987C597.067 2.0987 600.454 1.94937 601.905 1.6507C602.054 3.03737 602.374 4.87737 602.865 7.1707ZM626.319 23.7147C626.319 24.0134 626.233 24.1627 626.063 24.1627C625.327 24.1627 624.495 24.1307 623.567 24.0667C622.767 24.0027 622.084 23.9707 621.519 23.9707C620.868 23.9707 620.063 24.0027 619.103 24.0667C618.089 24.1307 617.225 24.1627 616.511 24.1627C616.34 24.1627 616.255 24.0134 616.255 23.7147C616.255 23.416 616.319 23.2667 616.447 23.2667C617.396 23.224 618.079 23.1014 618.495 22.8987C618.911 22.6854 619.119 22.36 619.119 21.9227C619.119 21.6454 619.012 21.2027 618.799 20.5947L616.991 15.2347H610.399L608.575 20.1947C608.34 20.856 608.223 21.368 608.223 21.7307C608.223 22.6694 609.087 23.1814 610.815 23.2667C610.943 23.2667 611.007 23.416 611.007 23.7147C611.007 24.0134 610.921 24.1627 610.751 24.1627C610.111 24.1627 609.401 24.1307 608.623 24.0667C607.887 24.0027 607.231 23.9707 606.655 23.9707C606.196 23.9707 605.62 24.0027 604.927 24.0667C604.201 24.1307 603.583 24.1627 603.071 24.1627C602.911 24.1627 602.831 24.0294 602.831 23.7627C602.831 23.464 602.953 23.304 603.199 23.2827C604.084 23.1974 604.783 22.952 605.295 22.5467C605.817 22.1414 606.356 21.3147 606.911 20.0667L614.399 1.6827C614.463 1.51204 614.612 1.4267 614.847 1.4267C615.103 1.4267 615.263 1.5067 615.327 1.6667L621.935 20.0667C622.308 21.1014 622.809 21.864 623.439 22.3547C624.079 22.8454 624.932 23.1547 625.999 23.2827C626.212 23.304 626.319 23.448 626.319 23.7147ZM616.639 14.2107L613.823 6.0347L610.783 14.2107H616.639ZM649.019 18.2427C648.635 19.9494 648.261 21.7627 647.899 23.6827C647.291 23.6827 646.187 23.8267 644.587 24.1147C642.539 24.488 641.024 24.6747 640.043 24.6747C637.611 24.6747 635.477 24.1947 633.643 23.2347C631.808 22.2747 630.379 20.904 629.355 19.1227C628.331 17.3307 627.819 15.3414 627.819 13.1547C627.819 11 628.357 9.01604 629.435 7.2027C630.523 5.3787 632.016 3.96004 633.915 2.9467C635.813 1.93337 637.952 1.4267 640.331 1.4267C641.333 1.4267 642.677 1.53337 644.363 1.7467C645.675 1.91737 646.629 2.0027 647.227 2.0027C647.365 3.49604 647.611 5.30937 647.963 7.4427C647.963 7.61337 647.792 7.6987 647.451 7.6987C647.237 7.6987 647.109 7.61337 647.067 7.4427C646.683 5.99204 645.856 4.79737 644.587 3.8587C643.317 2.92004 641.856 2.4507 640.203 2.4507C637.696 2.4507 635.589 3.48537 633.883 5.5547C632.187 7.62404 631.339 10.1574 631.339 13.1547C631.339 16.0667 632.181 18.5467 633.867 20.5947C635.552 22.632 637.611 23.6507 640.043 23.6507C643.851 23.6507 646.549 21.848 648.139 18.2427C648.213 18.072 648.357 17.9867 648.571 17.9867C648.869 17.9867 649.019 18.072 649.019 18.2427ZM672.615 7.1707C672.615 7.37337 672.423 7.4747 672.039 7.4747C671.868 7.4747 671.761 7.40004 671.719 7.2507C671.26 5.7467 670.604 4.68537 669.751 4.0667C668.897 3.43737 667.633 3.1227 665.959 3.1227H664.455C663.932 3.1227 663.575 3.20804 663.383 3.3787C663.191 3.54937 663.095 3.86937 663.095 4.3387V20.5787C663.095 21.3147 663.185 21.8374 663.367 22.1467C663.559 22.4454 663.889 22.6854 664.359 22.8667C664.839 23.0374 665.521 23.176 666.407 23.2827C666.577 23.304 666.663 23.448 666.663 23.7147C666.663 24.0134 666.577 24.1627 666.407 24.1627C665.692 24.1627 664.839 24.1307 663.847 24.0667C662.908 24.0027 662.124 23.9707 661.495 23.9707C660.844 23.9707 660.044 24.0027 659.095 24.0667C658.103 24.1307 657.249 24.1627 656.535 24.1627C656.364 24.1627 656.279 24.0134 656.279 23.7147C656.279 23.448 656.364 23.304 656.535 23.2827C657.825 23.1334 658.7 22.8934 659.159 22.5627C659.628 22.232 659.863 21.5707 659.863 20.5787V4.3387C659.863 3.86937 659.767 3.54937 659.575 3.3787C659.383 3.20804 659.02 3.1227 658.487 3.1227H657.239C655.735 3.1227 654.369 3.5067 653.143 4.2747C651.916 5.03204 651.116 6.0187 650.743 7.2347C650.689 7.3947 650.572 7.4747 650.391 7.4747C650.028 7.4747 649.847 7.35737 649.847 7.1227C650.444 5.51203 651.009 3.68803 651.543 1.6507C652.993 1.94937 656.311 2.0987 661.495 2.0987C666.817 2.0987 670.204 1.94937 671.655 1.6507C671.804 3.03737 672.124 4.87737 672.615 7.1707ZM687.685 17.7307C687.685 19.8534 687.055 21.544 685.797 22.8027C684.538 24.0507 682.837 24.6747 680.693 24.6747C679.743 24.6747 678.607 24.504 677.285 24.1627C676.079 23.8427 675.093 23.6827 674.325 23.6827C674.261 21.8694 674.133 20.056 673.941 18.2427C673.941 18.072 674.101 17.9867 674.421 17.9867C674.645 17.9867 674.783 18.072 674.837 18.2427C675.413 20.2267 676.149 21.624 677.045 22.4347C677.941 23.2454 679.199 23.6507 680.821 23.6507C682.111 23.6507 683.109 23.2774 683.813 22.5307C684.527 21.784 684.885 20.7387 684.885 19.3947C684.885 18.5307 684.575 17.7307 683.957 16.9947C683.338 16.248 682.021 15.288 680.005 14.1147C677.69 12.7814 676.175 11.6507 675.461 10.7227C674.746 9.7947 674.389 8.76537 674.389 7.6347C674.389 5.89604 675.029 4.42937 676.309 3.2347C677.599 2.02937 679.231 1.4267 681.205 1.4267C681.951 1.4267 682.81 1.52804 683.781 1.7307C684.687 1.91204 685.471 2.0027 686.133 2.0027C686.261 3.88004 686.431 5.53337 686.645 6.9627C686.645 7.13337 686.506 7.2187 686.229 7.2187C685.93 7.2187 685.765 7.13337 685.733 6.9627C685.381 5.3627 684.847 4.2107 684.133 3.5067C683.418 2.8027 682.431 2.4507 681.173 2.4507C679.978 2.4507 679.029 2.8027 678.325 3.5067C677.621 4.2107 677.269 5.16004 677.269 6.3547C677.269 7.11204 677.562 7.83737 678.149 8.5307C678.746 9.21337 680.031 10.1307 682.005 11.2827C684.341 12.648 685.871 13.7894 686.597 14.7067C687.322 15.624 687.685 16.632 687.685 17.7307Z" fill="black"/>
<path d="M287.649 18.2427C287.265 19.9494 286.891 21.7627 286.529 23.6827C285.921 23.6827 284.817 23.8267 283.217 24.1147C281.169 24.488 279.654 24.6747 278.673 24.6747C276.241 24.6747 274.107 24.1947 272.273 23.2347C270.438 22.2747 269.009 20.904 267.985 19.1227C266.961 17.3307 266.449 15.3414 266.449 13.1547C266.449 11 266.987 9.01604 268.065 7.2027C269.153 5.3787 270.646 3.96004 272.545 2.9467C274.443 1.93337 276.582 1.4267 278.961 1.4267C279.963 1.4267 281.307 1.53337 282.993 1.7467C284.305 1.91737 285.259 2.0027 285.857 2.0027C285.995 3.49604 286.241 5.30937 286.593 7.4427C286.593 7.61337 286.422 7.6987 286.081 7.6987C285.867 7.6987 285.739 7.61337 285.697 7.4427C285.313 5.99204 284.486 4.79737 283.217 3.8587C281.947 2.92004 280.486 2.4507 278.833 2.4507C276.326 2.4507 274.219 3.48537 272.513 5.5547C270.817 7.62404 269.969 10.1574 269.969 13.1547C269.969 16.0667 270.811 18.5467 272.497 20.5947C274.182 22.632 276.241 23.6507 278.673 23.6507C282.481 23.6507 285.179 21.848 286.769 18.2427C286.843 18.072 286.987 17.9867 287.201 17.9867C287.499 17.9867 287.649 18.072 287.649 18.2427ZM313.517 13.1547C313.517 16.536 312.429 19.304 310.253 21.4587C308.077 23.6027 305.234 24.6747 301.725 24.6747C298.215 24.6747 295.373 23.6027 293.197 21.4587C291.031 19.304 289.949 16.536 289.949 13.1547C289.949 9.7627 291.042 6.9627 293.229 4.7547C295.415 2.53604 298.247 1.4267 301.725 1.4267C305.213 1.4267 308.05 2.53604 310.237 4.7547C312.423 6.9627 313.517 9.7627 313.517 13.1547ZM309.997 13.1547C309.997 10.008 309.234 7.43737 307.709 5.4427C306.194 3.44804 304.199 2.4507 301.725 2.4507C299.239 2.4507 297.239 3.44804 295.725 5.4427C294.221 7.43737 293.469 10.008 293.469 13.1547C293.469 16.28 294.215 18.8134 295.709 20.7547C297.213 22.6854 299.218 23.6507 301.725 23.6507C304.221 23.6507 306.221 22.6854 307.725 20.7547C309.239 18.8134 309.997 16.28 309.997 13.1547ZM342.417 2.3867C342.417 2.65337 342.332 2.79737 342.161 2.8187C340.828 2.96804 339.911 3.21337 339.409 3.5547C338.919 3.89604 338.663 4.55204 338.641 5.5227L338.289 24.3547C338.289 24.568 338.161 24.6747 337.905 24.6747C337.777 24.6747 337.607 24.5894 337.393 24.4187L320.897 5.7787L320.673 20.5787C320.663 20.664 320.657 20.744 320.657 20.8187C320.657 21.6294 320.913 22.2054 321.425 22.5467C321.937 22.8774 322.86 23.1227 324.193 23.2827C324.364 23.304 324.449 23.448 324.449 23.7147C324.449 24.0134 324.364 24.1627 324.193 24.1627C323.639 24.1627 322.876 24.1307 321.905 24.0667C320.999 24.0027 320.3 23.9707 319.809 23.9707C319.276 23.9707 318.556 24.0027 317.649 24.0667C316.775 24.1307 316.097 24.1627 315.617 24.1627C315.447 24.1627 315.361 24.0134 315.361 23.7147C315.361 23.448 315.457 23.304 315.649 23.2827C316.972 23.1227 317.879 22.8774 318.369 22.5467C318.86 22.2054 319.121 21.5494 319.153 20.5787L319.713 5.5227V5.3787C319.713 4.5147 319.463 3.91204 318.961 3.5707C318.46 3.22937 317.527 2.97337 316.161 2.8027C316.012 2.8027 315.937 2.65337 315.937 2.3547C315.937 2.05604 316.023 1.9067 316.193 1.9067C316.567 1.9067 317.089 1.9387 317.761 2.0027C318.359 2.0667 318.807 2.0987 319.105 2.0987C319.479 2.0987 319.927 2.0667 320.449 2.0027C320.983 1.9387 321.441 1.9067 321.825 1.9067L337.233 19.1387V5.5227C337.233 4.61604 336.972 3.98137 336.449 3.6187C335.937 3.24537 334.983 2.9787 333.585 2.8187C333.415 2.79737 333.329 2.65337 333.329 2.3867C333.329 2.08803 333.415 1.9387 333.585 1.9387C334.161 1.9387 334.929 1.96537 335.889 2.0187C336.785 2.07203 337.479 2.0987 337.969 2.0987C338.503 2.0987 339.223 2.07203 340.129 2.0187C341.004 1.96537 341.681 1.9387 342.161 1.9387C342.332 1.9387 342.417 2.08803 342.417 2.3867ZM365.245 7.1707C365.245 7.37337 365.053 7.4747 364.669 7.4747C364.498 7.4747 364.391 7.40004 364.349 7.2507C363.89 5.7467 363.234 4.68537 362.381 4.0667C361.527 3.43737 360.263 3.1227 358.589 3.1227H357.085C356.562 3.1227 356.205 3.20804 356.013 3.3787C355.821 3.54937 355.725 3.86937 355.725 4.3387V20.5787C355.725 21.3147 355.815 21.8374 355.997 22.1467C356.189 22.4454 356.519 22.6854 356.989 22.8667C357.469 23.0374 358.151 23.176 359.037 23.2827C359.207 23.304 359.293 23.448 359.293 23.7147C359.293 24.0134 359.207 24.1627 359.037 24.1627C358.322 24.1627 357.469 24.1307 356.477 24.0667C355.538 24.0027 354.754 23.9707 354.125 23.9707C353.474 23.9707 352.674 24.0027 351.725 24.0667C350.733 24.1307 349.879 24.1627 349.165 24.1627C348.994 24.1627 348.909 24.0134 348.909 23.7147C348.909 23.448 348.994 23.304 349.165 23.2827C350.455 23.1334 351.33 22.8934 351.789 22.5627C352.258 22.232 352.493 21.5707 352.493 20.5787V4.3387C352.493 3.86937 352.397 3.54937 352.205 3.3787C352.013 3.20804 351.65 3.1227 351.117 3.1227H349.869C348.365 3.1227 346.999 3.5067 345.773 4.2747C344.546 5.03204 343.746 6.0187 343.373 7.2347C343.319 7.3947 343.202 7.4747 343.021 7.4747C342.658 7.4747 342.477 7.35737 342.477 7.1227C343.074 5.51203 343.639 3.68803 344.173 1.6507C345.623 1.94937 348.941 2.0987 354.125 2.0987C359.447 2.0987 362.834 1.94937 364.285 1.6507C364.434 3.03737 364.754 4.87737 365.245 7.1707ZM388.699 23.7147C388.699 24.0134 388.613 24.1627 388.443 24.1627C387.707 24.1627 386.875 24.1307 385.947 24.0667C385.147 24.0027 384.464 23.9707 383.899 23.9707C383.248 23.9707 382.443 24.0027 381.483 24.0667C380.469 24.1307 379.605 24.1627 378.891 24.1627C378.72 24.1627 378.635 24.0134 378.635 23.7147C378.635 23.416 378.699 23.2667 378.827 23.2667C379.776 23.224 380.459 23.1014 380.875 22.8987C381.291 22.6854 381.499 22.36 381.499 21.9227C381.499 21.6454 381.392 21.2027 381.179 20.5947L379.371 15.2347H372.779L370.955 20.1947C370.72 20.856 370.603 21.368 370.603 21.7307C370.603 22.6694 371.467 23.1814 373.195 23.2667C373.323 23.2667 373.387 23.416 373.387 23.7147C373.387 24.0134 373.301 24.1627 373.131 24.1627C372.491 24.1627 371.781 24.1307 371.003 24.0667C370.267 24.0027 369.611 23.9707 369.035 23.9707C368.576 23.9707 368 24.0027 367.307 24.0667C366.581 24.1307 365.963 24.1627 365.451 24.1627C365.291 24.1627 365.211 24.0294 365.211 23.7627C365.211 23.464 365.333 23.304 365.579 23.2827C366.464 23.1974 367.163 22.952 367.675 22.5467C368.197 22.1414 368.736 21.3147 369.291 20.0667L376.779 1.6827C376.843 1.51204 376.992 1.4267 377.227 1.4267C377.483 1.4267 377.643 1.5067 377.707 1.6667L384.315 20.0667C384.688 21.1014 385.189 21.864 385.819 22.3547C386.459 22.8454 387.312 23.1547 388.379 23.2827C388.592 23.304 388.699 23.448 388.699 23.7147ZM379.019 14.2107L376.203 6.0347L373.163 14.2107H379.019ZM411.399 18.2427C411.015 19.9494 410.641 21.7627 410.279 23.6827C409.671 23.6827 408.567 23.8267 406.967 24.1147C404.919 24.488 403.404 24.6747 402.423 24.6747C399.991 24.6747 397.857 24.1947 396.023 23.2347C394.188 22.2747 392.759 20.904 391.735 19.1227C390.711 17.3307 390.199 15.3414 390.199 13.1547C390.199 11 390.737 9.01604 391.815 7.2027C392.903 5.3787 394.396 3.96004 396.295 2.9467C398.193 1.93337 400.332 1.4267 402.711 1.4267C403.713 1.4267 405.057 1.53337 406.743 1.7467C408.055 1.91737 409.009 2.0027 409.607 2.0027C409.745 3.49604 409.991 5.30937 410.343 7.4427C410.343 7.61337 410.172 7.6987 409.831 7.6987C409.617 7.6987 409.489 7.61337 409.447 7.4427C409.063 5.99204 408.236 4.79737 406.967 3.8587C405.697 2.92004 404.236 2.4507 402.583 2.4507C400.076 2.4507 397.969 3.48537 396.263 5.5547C394.567 7.62404 393.719 10.1574 393.719 13.1547C393.719 16.0667 394.561 18.5467 396.247 20.5947C397.932 22.632 399.991 23.6507 402.423 23.6507C406.231 23.6507 408.929 21.848 410.519 18.2427C410.593 18.072 410.737 17.9867 410.951 17.9867C411.249 17.9867 411.399 18.072 411.399 18.2427ZM434.995 7.1707C434.995 7.37337 434.803 7.4747 434.419 7.4747C434.248 7.4747 434.141 7.40004 434.099 7.2507C433.64 5.7467 432.984 4.68537 432.131 4.0667C431.277 3.43737 430.013 3.1227 428.339 3.1227H426.835C426.312 3.1227 425.955 3.20804 425.763 3.3787C425.571 3.54937 425.475 3.86937 425.475 4.3387V20.5787C425.475 21.3147 425.565 21.8374 425.747 22.1467C425.939 22.4454 426.269 22.6854 426.739 22.8667C427.219 23.0374 427.901 23.176 428.787 23.2827C428.957 23.304 429.043 23.448 429.043 23.7147C429.043 24.0134 428.957 24.1627 428.787 24.1627C428.072 24.1627 427.219 24.1307 426.227 24.0667C425.288 24.0027 424.504 23.9707 423.875 23.9707C423.224 23.9707 422.424 24.0027 421.475 24.0667C420.483 24.1307 419.629 24.1627 418.915 24.1627C418.744 24.1627 418.659 24.0134 418.659 23.7147C418.659 23.448 418.744 23.304 418.915 23.2827C420.205 23.1334 421.08 22.8934 421.539 22.5627C422.008 22.232 422.243 21.5707 422.243 20.5787V4.3387C422.243 3.86937 422.147 3.54937 421.955 3.3787C421.763 3.20804 421.4 3.1227 420.867 3.1227H419.619C418.115 3.1227 416.749 3.5067 415.523 4.2747C414.296 5.03204 413.496 6.0187 413.123 7.2347C413.069 7.3947 412.952 7.4747 412.771 7.4747C412.408 7.4747 412.227 7.35737 412.227 7.1227C412.824 5.51203 413.389 3.68803 413.923 1.6507C415.373 1.94937 418.691 2.0987 423.875 2.0987C429.197 2.0987 432.584 1.94937 434.035 1.6507C434.184 3.03737 434.504 4.87737 434.995 7.1707ZM450.065 17.7307C450.065 19.8534 449.435 21.544 448.177 22.8027C446.918 24.0507 445.217 24.6747 443.073 24.6747C442.123 24.6747 440.987 24.504 439.665 24.1627C438.459 23.8427 437.473 23.6827 436.705 23.6827C436.641 21.8694 436.513 20.056 436.321 18.2427C436.321 18.072 436.481 17.9867 436.801 17.9867C437.025 17.9867 437.163 18.072 437.217 18.2427C437.793 20.2267 438.529 21.624 439.425 22.4347C440.321 23.2454 441.579 23.6507 443.201 23.6507C444.491 23.6507 445.489 23.2774 446.193 22.5307C446.907 21.784 447.265 20.7387 447.265 19.3947C447.265 18.5307 446.955 17.7307 446.337 16.9947C445.718 16.248 444.401 15.288 442.385 14.1147C440.07 12.7814 438.555 11.6507 437.841 10.7227C437.126 9.7947 436.769 8.76537 436.769 7.6347C436.769 5.89604 437.409 4.42937 438.689 3.2347C439.979 2.02937 441.611 1.4267 443.585 1.4267C444.331 1.4267 445.19 1.52804 446.161 1.7307C447.067 1.91204 447.851 2.0027 448.513 2.0027C448.641 3.88004 448.811 5.53337 449.025 6.9627C449.025 7.13337 448.886 7.2187 448.609 7.2187C448.31 7.2187 448.145 7.13337 448.113 6.9627C447.761 5.3627 447.227 4.2107 446.513 3.5067C445.798 2.8027 444.811 2.4507 443.553 2.4507C442.358 2.4507 441.409 2.8027 440.705 3.5067C440.001 4.2107 439.649 5.16004 439.649 6.3547C439.649 7.11204 439.942 7.83737 440.529 8.5307C441.126 9.21337 442.411 10.1307 444.385 11.2827C446.721 12.648 448.251 13.7894 448.977 14.7067C449.702 15.624 450.065 16.632 450.065 17.7307Z" fill="black"/>
<path d="M1241.69 18.2427C1241.3 19.9494 1240.93 21.7627 1240.57 23.6827C1239.96 23.6827 1238.85 23.8267 1237.25 24.1147C1235.21 24.488 1233.69 24.6747 1232.71 24.6747C1230.28 24.6747 1228.14 24.1947 1226.31 23.2347C1224.48 22.2747 1223.05 20.904 1222.02 19.1227C1221 17.3307 1220.49 15.3414 1220.49 13.1547C1220.49 11 1221.02 9.01604 1222.1 7.2027C1223.19 5.3787 1224.68 3.96004 1226.58 2.9467C1228.48 1.93337 1230.62 1.4267 1233 1.4267C1234 1.4267 1235.34 1.53337 1237.03 1.7467C1238.34 1.91737 1239.3 2.0027 1239.89 2.0027C1240.03 3.49604 1240.28 5.30937 1240.63 7.4427C1240.63 7.61337 1240.46 7.6987 1240.12 7.6987C1239.9 7.6987 1239.78 7.61337 1239.73 7.4427C1239.35 5.99204 1238.52 4.79737 1237.25 3.8587C1235.98 2.92004 1234.52 2.4507 1232.87 2.4507C1230.36 2.4507 1228.26 3.48537 1226.55 5.5547C1224.85 7.62404 1224.01 10.1574 1224.01 13.1547C1224.01 16.0667 1224.85 18.5467 1226.53 20.5947C1228.22 22.632 1230.28 23.6507 1232.71 23.6507C1236.52 23.6507 1239.22 21.848 1240.81 18.2427C1240.88 18.072 1241.02 17.9867 1241.24 17.9867C1241.54 17.9867 1241.69 18.072 1241.69 18.2427ZM1267.55 13.1547C1267.55 16.536 1266.47 19.304 1264.29 21.4587C1262.11 23.6027 1259.27 24.6747 1255.76 24.6747C1252.25 24.6747 1249.41 23.6027 1247.23 21.4587C1245.07 19.304 1243.99 16.536 1243.99 13.1547C1243.99 9.7627 1245.08 6.9627 1247.27 4.7547C1249.45 2.53604 1252.28 1.4267 1255.76 1.4267C1259.25 1.4267 1262.09 2.53604 1264.27 4.7547C1266.46 6.9627 1267.55 9.7627 1267.55 13.1547ZM1264.03 13.1547C1264.03 10.008 1263.27 7.43737 1261.75 5.4427C1260.23 3.44804 1258.24 2.4507 1255.76 2.4507C1253.28 2.4507 1251.28 3.44804 1249.76 5.4427C1248.26 7.43737 1247.51 10.008 1247.51 13.1547C1247.51 16.28 1248.25 18.8134 1249.75 20.7547C1251.25 22.6854 1253.26 23.6507 1255.76 23.6507C1258.26 23.6507 1260.26 22.6854 1261.76 20.7547C1263.28 18.8134 1264.03 16.28 1264.03 13.1547ZM1296.45 2.3867C1296.45 2.65337 1296.37 2.79737 1296.2 2.8187C1294.87 2.96804 1293.95 3.21337 1293.45 3.5547C1292.96 3.89604 1292.7 4.55204 1292.68 5.5227L1292.33 24.3547C1292.33 24.568 1292.2 24.6747 1291.94 24.6747C1291.81 24.6747 1291.64 24.5894 1291.43 24.4187L1274.93 5.7787L1274.71 20.5787C1274.7 20.664 1274.69 20.744 1274.69 20.8187C1274.69 21.6294 1274.95 22.2054 1275.46 22.5467C1275.97 22.8774 1276.9 23.1227 1278.23 23.2827C1278.4 23.304 1278.49 23.448 1278.49 23.7147C1278.49 24.0134 1278.4 24.1627 1278.23 24.1627C1277.68 24.1627 1276.91 24.1307 1275.94 24.0667C1275.04 24.0027 1274.34 23.9707 1273.85 23.9707C1273.31 23.9707 1272.59 24.0027 1271.69 24.0667C1270.81 24.1307 1270.13 24.1627 1269.65 24.1627C1269.48 24.1627 1269.4 24.0134 1269.4 23.7147C1269.4 23.448 1269.49 23.304 1269.69 23.2827C1271.01 23.1227 1271.92 22.8774 1272.41 22.5467C1272.9 22.2054 1273.16 21.5494 1273.19 20.5787L1273.75 5.5227V5.3787C1273.75 4.5147 1273.5 3.91204 1273 3.5707C1272.5 3.22937 1271.56 2.97337 1270.2 2.8027C1270.05 2.8027 1269.97 2.65337 1269.97 2.3547C1269.97 2.05604 1270.06 1.9067 1270.23 1.9067C1270.6 1.9067 1271.13 1.9387 1271.8 2.0027C1272.4 2.0667 1272.84 2.0987 1273.14 2.0987C1273.52 2.0987 1273.96 2.0667 1274.49 2.0027C1275.02 1.9387 1275.48 1.9067 1275.86 1.9067L1291.27 19.1387V5.5227C1291.27 4.61604 1291.01 3.98137 1290.49 3.6187C1289.97 3.24537 1289.02 2.9787 1287.62 2.8187C1287.45 2.79737 1287.37 2.65337 1287.37 2.3867C1287.37 2.08803 1287.45 1.9387 1287.62 1.9387C1288.2 1.9387 1288.97 1.96537 1289.93 2.0187C1290.82 2.07203 1291.52 2.0987 1292.01 2.0987C1292.54 2.0987 1293.26 2.07203 1294.17 2.0187C1295.04 1.96537 1295.72 1.9387 1296.2 1.9387C1296.37 1.9387 1296.45 2.08803 1296.45 2.3867ZM1319.28 7.1707C1319.28 7.37337 1319.09 7.4747 1318.71 7.4747C1318.54 7.4747 1318.43 7.40004 1318.39 7.2507C1317.93 5.7467 1317.27 4.68537 1316.42 4.0667C1315.56 3.43737 1314.3 3.1227 1312.63 3.1227H1311.12C1310.6 3.1227 1310.24 3.20804 1310.05 3.3787C1309.86 3.54937 1309.76 3.86937 1309.76 4.3387V20.5787C1309.76 21.3147 1309.85 21.8374 1310.03 22.1467C1310.23 22.4454 1310.56 22.6854 1311.03 22.8667C1311.51 23.0374 1312.19 23.176 1313.07 23.2827C1313.24 23.304 1313.33 23.448 1313.33 23.7147C1313.33 24.0134 1313.24 24.1627 1313.07 24.1627C1312.36 24.1627 1311.51 24.1307 1310.51 24.0667C1309.58 24.0027 1308.79 23.9707 1308.16 23.9707C1307.51 23.9707 1306.71 24.0027 1305.76 24.0667C1304.77 24.1307 1303.92 24.1627 1303.2 24.1627C1303.03 24.1627 1302.95 24.0134 1302.95 23.7147C1302.95 23.448 1303.03 23.304 1303.2 23.2827C1304.49 23.1334 1305.37 22.8934 1305.83 22.5627C1306.3 22.232 1306.53 21.5707 1306.53 20.5787V4.3387C1306.53 3.86937 1306.43 3.54937 1306.24 3.3787C1306.05 3.20804 1305.69 3.1227 1305.15 3.1227H1303.91C1302.4 3.1227 1301.04 3.5067 1299.81 4.2747C1298.58 5.03204 1297.78 6.0187 1297.41 7.2347C1297.36 7.3947 1297.24 7.4747 1297.06 7.4747C1296.7 7.4747 1296.51 7.35737 1296.51 7.1227C1297.11 5.51203 1297.68 3.68803 1298.21 1.6507C1299.66 1.94937 1302.98 2.0987 1308.16 2.0987C1313.48 2.0987 1316.87 1.94937 1318.32 1.6507C1318.47 3.03737 1318.79 4.87737 1319.28 7.1707ZM1342.74 23.7147C1342.74 24.0134 1342.65 24.1627 1342.48 24.1627C1341.74 24.1627 1340.91 24.1307 1339.98 24.0667C1339.18 24.0027 1338.5 23.9707 1337.94 23.9707C1337.29 23.9707 1336.48 24.0027 1335.52 24.0667C1334.51 24.1307 1333.64 24.1627 1332.93 24.1627C1332.76 24.1627 1332.67 24.0134 1332.67 23.7147C1332.67 23.416 1332.74 23.2667 1332.86 23.2667C1333.81 23.224 1334.5 23.1014 1334.91 22.8987C1335.33 22.6854 1335.54 22.36 1335.54 21.9227C1335.54 21.6454 1335.43 21.2027 1335.22 20.5947L1333.41 15.2347H1326.82L1324.99 20.1947C1324.76 20.856 1324.64 21.368 1324.64 21.7307C1324.64 22.6694 1325.5 23.1814 1327.23 23.2667C1327.36 23.2667 1327.42 23.416 1327.42 23.7147C1327.42 24.0134 1327.34 24.1627 1327.17 24.1627C1326.53 24.1627 1325.82 24.1307 1325.04 24.0667C1324.3 24.0027 1323.65 23.9707 1323.07 23.9707C1322.61 23.9707 1322.04 24.0027 1321.34 24.0667C1320.62 24.1307 1320 24.1627 1319.49 24.1627C1319.33 24.1627 1319.25 24.0294 1319.25 23.7627C1319.25 23.464 1319.37 23.304 1319.62 23.2827C1320.5 23.1974 1321.2 22.952 1321.71 22.5467C1322.23 22.1414 1322.77 21.3147 1323.33 20.0667L1330.82 1.6827C1330.88 1.51204 1331.03 1.4267 1331.26 1.4267C1331.52 1.4267 1331.68 1.5067 1331.74 1.6667L1338.35 20.0667C1338.73 21.1014 1339.23 21.864 1339.86 22.3547C1340.5 22.8454 1341.35 23.1547 1342.42 23.2827C1342.63 23.304 1342.74 23.448 1342.74 23.7147ZM1333.06 14.2107L1330.24 6.0347L1327.2 14.2107H1333.06ZM1365.44 18.2427C1365.05 19.9494 1364.68 21.7627 1364.32 23.6827C1363.71 23.6827 1362.6 23.8267 1361 24.1147C1358.96 24.488 1357.44 24.6747 1356.46 24.6747C1354.03 24.6747 1351.89 24.1947 1350.06 23.2347C1348.23 22.2747 1346.8 20.904 1345.77 19.1227C1344.75 17.3307 1344.24 15.3414 1344.24 13.1547C1344.24 11 1344.77 9.01604 1345.85 7.2027C1346.94 5.3787 1348.43 3.96004 1350.33 2.9467C1352.23 1.93337 1354.37 1.4267 1356.75 1.4267C1357.75 1.4267 1359.09 1.53337 1360.78 1.7467C1362.09 1.91737 1363.05 2.0027 1363.64 2.0027C1363.78 3.49604 1364.03 5.30937 1364.38 7.4427C1364.38 7.61337 1364.21 7.6987 1363.87 7.6987C1363.65 7.6987 1363.53 7.61337 1363.48 7.4427C1363.1 5.99204 1362.27 4.79737 1361 3.8587C1359.73 2.92004 1358.27 2.4507 1356.62 2.4507C1354.11 2.4507 1352.01 3.48537 1350.3 5.5547C1348.6 7.62404 1347.76 10.1574 1347.76 13.1547C1347.76 16.0667 1348.6 18.5467 1350.28 20.5947C1351.97 22.632 1354.03 23.6507 1356.46 23.6507C1360.27 23.6507 1362.97 21.848 1364.56 18.2427C1364.63 18.072 1364.77 17.9867 1364.99 17.9867C1365.29 17.9867 1365.44 18.072 1365.44 18.2427ZM1389.03 7.1707C1389.03 7.37337 1388.84 7.4747 1388.46 7.4747C1388.29 7.4747 1388.18 7.40004 1388.14 7.2507C1387.68 5.7467 1387.02 4.68537 1386.17 4.0667C1385.31 3.43737 1384.05 3.1227 1382.38 3.1227H1380.87C1380.35 3.1227 1379.99 3.20804 1379.8 3.3787C1379.61 3.54937 1379.51 3.86937 1379.51 4.3387V20.5787C1379.51 21.3147 1379.6 21.8374 1379.78 22.1467C1379.98 22.4454 1380.31 22.6854 1380.78 22.8667C1381.26 23.0374 1381.94 23.176 1382.82 23.2827C1382.99 23.304 1383.08 23.448 1383.08 23.7147C1383.08 24.0134 1382.99 24.1627 1382.82 24.1627C1382.11 24.1627 1381.26 24.1307 1380.26 24.0667C1379.33 24.0027 1378.54 23.9707 1377.91 23.9707C1377.26 23.9707 1376.46 24.0027 1375.51 24.0667C1374.52 24.1307 1373.67 24.1627 1372.95 24.1627C1372.78 24.1627 1372.7 24.0134 1372.7 23.7147C1372.7 23.448 1372.78 23.304 1372.95 23.2827C1374.24 23.1334 1375.12 22.8934 1375.58 22.5627C1376.05 22.232 1376.28 21.5707 1376.28 20.5787V4.3387C1376.28 3.86937 1376.18 3.54937 1375.99 3.3787C1375.8 3.20804 1375.44 3.1227 1374.9 3.1227H1373.66C1372.15 3.1227 1370.79 3.5067 1369.56 4.2747C1368.33 5.03204 1367.53 6.0187 1367.16 7.2347C1367.11 7.3947 1366.99 7.4747 1366.81 7.4747C1366.45 7.4747 1366.26 7.35737 1366.26 7.1227C1366.86 5.51203 1367.43 3.68803 1367.96 1.6507C1369.41 1.94937 1372.73 2.0987 1377.91 2.0987C1383.23 2.0987 1386.62 1.94937 1388.07 1.6507C1388.22 3.03737 1388.54 4.87737 1389.03 7.1707ZM1404.1 17.7307C1404.1 19.8534 1403.47 21.544 1402.21 22.8027C1400.96 24.0507 1399.25 24.6747 1397.11 24.6747C1396.16 24.6747 1395.02 24.504 1393.7 24.1627C1392.5 23.8427 1391.51 23.6827 1390.74 23.6827C1390.68 21.8694 1390.55 20.056 1390.36 18.2427C1390.36 18.072 1390.52 17.9867 1390.84 17.9867C1391.06 17.9867 1391.2 18.072 1391.25 18.2427C1391.83 20.2267 1392.57 21.624 1393.46 22.4347C1394.36 23.2454 1395.62 23.6507 1397.24 23.6507C1398.53 23.6507 1399.53 23.2774 1400.23 22.5307C1400.94 21.784 1401.3 20.7387 1401.3 19.3947C1401.3 18.5307 1400.99 17.7307 1400.37 16.9947C1399.76 16.248 1398.44 15.288 1396.42 14.1147C1394.11 12.7814 1392.59 11.6507 1391.88 10.7227C1391.16 9.7947 1390.81 8.76537 1390.81 7.6347C1390.81 5.89604 1391.45 4.42937 1392.73 3.2347C1394.02 2.02937 1395.65 1.4267 1397.62 1.4267C1398.37 1.4267 1399.23 1.52804 1400.2 1.7307C1401.1 1.91204 1401.89 2.0027 1402.55 2.0027C1402.68 3.88004 1402.85 5.53337 1403.06 6.9627C1403.06 7.13337 1402.92 7.2187 1402.65 7.2187C1402.35 7.2187 1402.18 7.13337 1402.15 6.9627C1401.8 5.3627 1401.26 4.2107 1400.55 3.5067C1399.84 2.8027 1398.85 2.4507 1397.59 2.4507C1396.4 2.4507 1395.45 2.8027 1394.74 3.5067C1394.04 4.2107 1393.69 5.16004 1393.69 6.3547C1393.69 7.11204 1393.98 7.83737 1394.57 8.5307C1395.16 9.21337 1396.45 10.1307 1398.42 11.2827C1400.76 12.648 1402.29 13.7894 1403.01 14.7067C1403.74 15.624 1404.1 16.632 1404.1 17.7307Z" fill="black"/>
<path d="M763.099 18.2427C762.715 19.9494 762.341 21.7627 761.979 23.6827C761.371 23.6827 760.267 23.8267 758.667 24.1147C756.619 24.488 755.104 24.6747 754.123 24.6747C751.691 24.6747 749.557 24.1947 747.723 23.2347C745.888 22.2747 744.459 20.904 743.435 19.1227C742.411 17.3307 741.899 15.3414 741.899 13.1547C741.899 11 742.437 9.01604 743.515 7.2027C744.603 5.3787 746.096 3.96004 747.995 2.9467C749.893 1.93337 752.032 1.4267 754.411 1.4267C755.413 1.4267 756.757 1.53337 758.443 1.7467C759.755 1.91737 760.709 2.0027 761.307 2.0027C761.445 3.49604 761.691 5.30937 762.043 7.4427C762.043 7.61337 761.872 7.6987 761.531 7.6987C761.317 7.6987 761.189 7.61337 761.147 7.4427C760.763 5.99204 759.936 4.79737 758.667 3.8587C757.397 2.92004 755.936 2.4507 754.283 2.4507C751.776 2.4507 749.669 3.48537 747.963 5.5547C746.267 7.62404 745.419 10.1574 745.419 13.1547C745.419 16.0667 746.261 18.5467 747.947 20.5947C749.632 22.632 751.691 23.6507 754.123 23.6507C757.931 23.6507 760.629 21.848 762.219 18.2427C762.293 18.072 762.437 17.9867 762.651 17.9867C762.949 17.9867 763.099 18.072 763.099 18.2427ZM788.967 13.1547C788.967 16.536 787.879 19.304 785.703 21.4587C783.527 23.6027 780.684 24.6747 777.175 24.6747C773.665 24.6747 770.823 23.6027 768.647 21.4587C766.481 19.304 765.399 16.536 765.399 13.1547C765.399 9.7627 766.492 6.9627 768.679 4.7547C770.865 2.53604 773.697 1.4267 777.175 1.4267C780.663 1.4267 783.5 2.53604 785.687 4.7547C787.873 6.9627 788.967 9.7627 788.967 13.1547ZM785.447 13.1547C785.447 10.008 784.684 7.43737 783.159 5.4427C781.644 3.44804 779.649 2.4507 777.175 2.4507C774.689 2.4507 772.689 3.44804 771.175 5.4427C769.671 7.43737 768.919 10.008 768.919 13.1547C768.919 16.28 769.665 18.8134 771.159 20.7547C772.663 22.6854 774.668 23.6507 777.175 23.6507C779.671 23.6507 781.671 22.6854 783.175 20.7547C784.689 18.8134 785.447 16.28 785.447 13.1547ZM817.868 2.3867C817.868 2.65337 817.782 2.79737 817.612 2.8187C816.278 2.96804 815.361 3.21337 814.86 3.5547C814.369 3.89604 814.113 4.55204 814.092 5.5227L813.74 24.3547C813.74 24.568 813.612 24.6747 813.356 24.6747C813.228 24.6747 813.057 24.5894 812.844 24.4187L796.348 5.7787L796.124 20.5787C796.113 20.664 796.108 20.744 796.108 20.8187C796.108 21.6294 796.364 22.2054 796.876 22.5467C797.388 22.8774 798.31 23.1227 799.644 23.2827C799.814 23.304 799.9 23.448 799.9 23.7147C799.9 24.0134 799.814 24.1627 799.644 24.1627C799.089 24.1627 798.326 24.1307 797.356 24.0667C796.449 24.0027 795.75 23.9707 795.26 23.9707C794.726 23.9707 794.006 24.0027 793.1 24.0667C792.225 24.1307 791.548 24.1627 791.068 24.1627C790.897 24.1627 790.812 24.0134 790.812 23.7147C790.812 23.448 790.908 23.304 791.1 23.2827C792.422 23.1227 793.329 22.8774 793.82 22.5467C794.31 22.2054 794.572 21.5494 794.604 20.5787L795.164 5.5227V5.3787C795.164 4.5147 794.913 3.91204 794.412 3.5707C793.91 3.22937 792.977 2.97337 791.612 2.8027C791.462 2.8027 791.388 2.65337 791.388 2.3547C791.388 2.05604 791.473 1.9067 791.644 1.9067C792.017 1.9067 792.54 1.9387 793.212 2.0027C793.809 2.0667 794.257 2.0987 794.556 2.0987C794.929 2.0987 795.377 2.0667 795.9 2.0027C796.433 1.9387 796.892 1.9067 797.276 1.9067L812.684 19.1387V5.5227C812.684 4.61604 812.422 3.98137 811.9 3.6187C811.388 3.24537 810.433 2.9787 809.036 2.8187C808.865 2.79737 808.78 2.65337 808.78 2.3867C808.78 2.08803 808.865 1.9387 809.036 1.9387C809.612 1.9387 810.38 1.96537 811.34 2.0187C812.236 2.07203 812.929 2.0987 813.42 2.0987C813.953 2.0987 814.673 2.07203 815.58 2.0187C816.454 1.96537 817.132 1.9387 817.612 1.9387C817.782 1.9387 817.868 2.08803 817.868 2.3867ZM840.695 7.1707C840.695 7.37337 840.503 7.4747 840.119 7.4747C839.948 7.4747 839.841 7.40004 839.799 7.2507C839.34 5.7467 838.684 4.68537 837.831 4.0667C836.977 3.43737 835.713 3.1227 834.039 3.1227H832.535C832.012 3.1227 831.655 3.20804 831.463 3.3787C831.271 3.54937 831.175 3.86937 831.175 4.3387V20.5787C831.175 21.3147 831.265 21.8374 831.447 22.1467C831.639 22.4454 831.969 22.6854 832.439 22.8667C832.919 23.0374 833.601 23.176 834.487 23.2827C834.657 23.304 834.743 23.448 834.743 23.7147C834.743 24.0134 834.657 24.1627 834.487 24.1627C833.772 24.1627 832.919 24.1307 831.927 24.0667C830.988 24.0027 830.204 23.9707 829.575 23.9707C828.924 23.9707 828.124 24.0027 827.175 24.0667C826.183 24.1307 825.329 24.1627 824.615 24.1627C824.444 24.1627 824.359 24.0134 824.359 23.7147C824.359 23.448 824.444 23.304 824.615 23.2827C825.905 23.1334 826.78 22.8934 827.239 22.5627C827.708 22.232 827.943 21.5707 827.943 20.5787V4.3387C827.943 3.86937 827.847 3.54937 827.655 3.3787C827.463 3.20804 827.1 3.1227 826.567 3.1227H825.319C823.815 3.1227 822.449 3.5067 821.223 4.2747C819.996 5.03204 819.196 6.0187 818.823 7.2347C818.769 7.3947 818.652 7.4747 818.471 7.4747C818.108 7.4747 817.927 7.35737 817.927 7.1227C818.524 5.51203 819.089 3.68803 819.623 1.6507C821.073 1.94937 824.391 2.0987 829.575 2.0987C834.897 2.0987 838.284 1.94937 839.735 1.6507C839.884 3.03737 840.204 4.87737 840.695 7.1707ZM864.149 23.7147C864.149 24.0134 864.063 24.1627 863.893 24.1627C863.157 24.1627 862.325 24.1307 861.397 24.0667C860.597 24.0027 859.914 23.9707 859.349 23.9707C858.698 23.9707 857.893 24.0027 856.933 24.0667C855.919 24.1307 855.055 24.1627 854.341 24.1627C854.17 24.1627 854.085 24.0134 854.085 23.7147C854.085 23.416 854.149 23.2667 854.277 23.2667C855.226 23.224 855.909 23.1014 856.325 22.8987C856.741 22.6854 856.949 22.36 856.949 21.9227C856.949 21.6454 856.842 21.2027 856.629 20.5947L854.821 15.2347H848.229L846.405 20.1947C846.17 20.856 846.053 21.368 846.053 21.7307C846.053 22.6694 846.917 23.1814 848.645 23.2667C848.773 23.2667 848.837 23.416 848.837 23.7147C848.837 24.0134 848.751 24.1627 848.581 24.1627C847.941 24.1627 847.231 24.1307 846.453 24.0667C845.717 24.0027 845.061 23.9707 844.485 23.9707C844.026 23.9707 843.45 24.0027 842.757 24.0667C842.031 24.1307 841.413 24.1627 840.901 24.1627C840.741 24.1627 840.661 24.0294 840.661 23.7627C840.661 23.464 840.783 23.304 841.029 23.2827C841.914 23.1974 842.613 22.952 843.125 22.5467C843.647 22.1414 844.186 21.3147 844.741 20.0667L852.229 1.6827C852.293 1.51204 852.442 1.4267 852.677 1.4267C852.933 1.4267 853.093 1.5067 853.157 1.6667L859.765 20.0667C860.138 21.1014 860.639 21.864 861.269 22.3547C861.909 22.8454 862.762 23.1547 863.829 23.2827C864.042 23.304 864.149 23.448 864.149 23.7147ZM854.469 14.2107L851.653 6.0347L848.613 14.2107H854.469ZM886.849 18.2427C886.465 19.9494 886.091 21.7627 885.729 23.6827C885.121 23.6827 884.017 23.8267 882.417 24.1147C880.369 24.488 878.854 24.6747 877.873 24.6747C875.441 24.6747 873.307 24.1947 871.473 23.2347C869.638 22.2747 868.209 20.904 867.185 19.1227C866.161 17.3307 865.649 15.3414 865.649 13.1547C865.649 11 866.187 9.01604 867.265 7.2027C868.353 5.3787 869.846 3.96004 871.745 2.9467C873.643 1.93337 875.782 1.4267 878.161 1.4267C879.163 1.4267 880.507 1.53337 882.193 1.7467C883.505 1.91737 884.459 2.0027 885.057 2.0027C885.195 3.49604 885.441 5.30937 885.793 7.4427C885.793 7.61337 885.622 7.6987 885.281 7.6987C885.067 7.6987 884.939 7.61337 884.897 7.4427C884.513 5.99204 883.686 4.79737 882.417 3.8587C881.147 2.92004 879.686 2.4507 878.033 2.4507C875.526 2.4507 873.419 3.48537 871.713 5.5547C870.017 7.62404 869.169 10.1574 869.169 13.1547C869.169 16.0667 870.011 18.5467 871.697 20.5947C873.382 22.632 875.441 23.6507 877.873 23.6507C881.681 23.6507 884.379 21.848 885.969 18.2427C886.043 18.072 886.187 17.9867 886.401 17.9867C886.699 17.9867 886.849 18.072 886.849 18.2427ZM910.445 7.1707C910.445 7.37337 910.253 7.4747 909.869 7.4747C909.698 7.4747 909.591 7.40004 909.549 7.2507C909.09 5.7467 908.434 4.68537 907.581 4.0667C906.727 3.43737 905.463 3.1227 903.789 3.1227H902.285C901.762 3.1227 901.405 3.20804 901.213 3.3787C901.021 3.54937 900.925 3.86937 900.925 4.3387V20.5787C900.925 21.3147 901.015 21.8374 901.197 22.1467C901.389 22.4454 901.719 22.6854 902.189 22.8667C902.669 23.0374 903.351 23.176 904.237 23.2827C904.407 23.304 904.493 23.448 904.493 23.7147C904.493 24.0134 904.407 24.1627 904.237 24.1627C903.522 24.1627 902.669 24.1307 901.677 24.0667C900.738 24.0027 899.954 23.9707 899.325 23.9707C898.674 23.9707 897.874 24.0027 896.925 24.0667C895.933 24.1307 895.079 24.1627 894.365 24.1627C894.194 24.1627 894.109 24.0134 894.109 23.7147C894.109 23.448 894.194 23.304 894.365 23.2827C895.655 23.1334 896.53 22.8934 896.989 22.5627C897.458 22.232 897.693 21.5707 897.693 20.5787V4.3387C897.693 3.86937 897.597 3.54937 897.405 3.3787C897.213 3.20804 896.85 3.1227 896.317 3.1227H895.069C893.565 3.1227 892.199 3.5067 890.973 4.2747C889.746 5.03204 888.946 6.0187 888.573 7.2347C888.519 7.3947 888.402 7.4747 888.221 7.4747C887.858 7.4747 887.677 7.35737 887.677 7.1227C888.274 5.51203 888.839 3.68803 889.373 1.6507C890.823 1.94937 894.141 2.0987 899.325 2.0987C904.647 2.0987 908.034 1.94937 909.485 1.6507C909.634 3.03737 909.954 4.87737 910.445 7.1707ZM925.515 17.7307C925.515 19.8534 924.885 21.544 923.627 22.8027C922.368 24.0507 920.667 24.6747 918.523 24.6747C917.573 24.6747 916.437 24.504 915.115 24.1627C913.909 23.8427 912.923 23.6827 912.155 23.6827C912.091 21.8694 911.963 20.056 911.771 18.2427C911.771 18.072 911.931 17.9867 912.251 17.9867C912.475 17.9867 912.613 18.072 912.667 18.2427C913.243 20.2267 913.979 21.624 914.875 22.4347C915.771 23.2454 917.029 23.6507 918.651 23.6507C919.941 23.6507 920.939 23.2774 921.643 22.5307C922.357 21.784 922.715 20.7387 922.715 19.3947C922.715 18.5307 922.405 17.7307 921.787 16.9947C921.168 16.248 919.851 15.288 917.835 14.1147C915.52 12.7814 914.005 11.6507 913.291 10.7227C912.576 9.7947 912.219 8.76537 912.219 7.6347C912.219 5.89604 912.859 4.42937 914.139 3.2347C915.429 2.02937 917.061 1.4267 919.035 1.4267C919.781 1.4267 920.64 1.52804 921.611 1.7307C922.517 1.91204 923.301 2.0027 923.963 2.0027C924.091 3.88004 924.261 5.53337 924.475 6.9627C924.475 7.13337 924.336 7.2187 924.059 7.2187C923.76 7.2187 923.595 7.13337 923.563 6.9627C923.211 5.3627 922.677 4.2107 921.963 3.5067C921.248 2.8027 920.261 2.4507 919.003 2.4507C917.808 2.4507 916.859 2.8027 916.155 3.5067C915.451 4.2107 915.099 5.16004 915.099 6.3547C915.099 7.11204 915.392 7.83737 915.979 8.5307C916.576 9.21337 917.861 10.1307 919.835 11.2827C922.171 12.648 923.701 13.7894 924.427 14.7067C925.152 15.624 925.515 16.632 925.515 17.7307Z" fill="black"/>
</svg>
