<svg width="282" height="197" viewBox="0 0 282 197" fill="none" xmlns="http://www.w3.org/2000/svg">
<path d="M278.134 96.1225C289.694 185.517 278.134 198.43 132.004 179.407C-26.6546 158.753 2.70476 146.124 2.70476 87.2006C2.70476 28.2769 60.5939 7.97638 132.004 7.97638C242.765 -7.56258 264.49 -9.38253 278.134 96.1225Z" fill="#C7CDC2"/>
<path d="M60.1 64L66.24 49.84H68.04L74.12 64H71.88L70.44 60.52H63.72L62.3 64H60.1ZM64.42 58.78H69.72L67.08 52.14L64.42 58.78ZM82.3272 64.36C80.1539 64.36 78.3672 63.66 76.9672 62.26C75.5672 60.86 74.8672 59.0733 74.8672 56.9C74.8672 54.7133 75.5805 52.9333 77.0072 51.56C78.4339 50.1733 80.2339 49.48 82.4072 49.48C83.4205 49.48 84.3939 49.6733 85.3272 50.06C86.2605 50.4467 86.9805 50.9867 87.4872 51.68L85.9272 52.88C85.5805 52.3867 85.0872 51.9867 84.4472 51.68C83.8072 51.3733 83.1272 51.22 82.4072 51.22C80.8072 51.22 79.5072 51.7667 78.5072 52.86C77.5205 53.9533 77.0272 55.3 77.0272 56.9C77.0272 58.5267 77.5139 59.8867 78.4872 60.98C79.4605 62.06 80.7472 62.6 82.3472 62.6C84.0139 62.6 85.2805 61.9733 86.1472 60.72L87.7272 61.8C86.4739 63.5067 84.6739 64.36 82.3272 64.36ZM96.253 64.36C94.0796 64.36 92.293 63.66 90.893 62.26C89.493 60.86 88.793 59.0733 88.793 56.9C88.793 54.7133 89.5063 52.9333 90.933 51.56C92.3596 50.1733 94.1596 49.48 96.333 49.48C97.3463 49.48 98.3196 49.6733 99.253 50.06C100.186 50.4467 100.906 50.9867 101.413 51.68L99.853 52.88C99.5063 52.3867 99.013 51.9867 98.373 51.68C97.733 51.3733 97.053 51.22 96.333 51.22C94.733 51.22 93.433 51.7667 92.433 52.86C91.4463 53.9533 90.953 55.3 90.953 56.9C90.953 58.5267 91.4396 59.8867 92.413 60.98C93.3863 62.06 94.673 62.6 96.273 62.6C97.9396 62.6 99.2063 61.9733 100.073 60.72L101.653 61.8C100.4 63.5067 98.5996 64.36 96.253 64.36ZM110.199 64.36C108.039 64.36 106.252 63.66 104.839 62.26C103.425 60.86 102.719 59.0733 102.719 56.9C102.719 54.7133 103.419 52.9333 104.819 51.56C106.232 50.1733 108.025 49.48 110.199 49.48C112.372 49.48 114.165 50.1733 115.579 51.56C117.005 52.9333 117.719 54.7133 117.719 56.9C117.719 59.0733 117.005 60.86 115.579 62.26C114.165 63.66 112.372 64.36 110.199 64.36ZM110.199 62.58C111.812 62.58 113.112 62.04 114.099 60.96C115.085 59.8667 115.579 58.5133 115.579 56.9C115.579 55.3 115.085 53.9533 114.099 52.86C113.112 51.7667 111.812 51.22 110.199 51.22C108.612 51.22 107.325 51.7667 106.339 52.86C105.352 53.9533 104.859 55.3 104.859 56.9C104.859 58.5133 105.352 59.8667 106.339 60.96C107.325 62.04 108.612 62.58 110.199 62.58ZM120.411 64V49.84H124.731C126.318 49.84 127.558 50.1667 128.451 50.82C129.345 51.46 129.791 52.4467 129.791 53.78C129.791 55.14 129.318 56.1467 128.371 56.8C127.438 57.4533 126.191 57.78 124.631 57.78H122.391V64H120.411ZM122.391 56.1H124.491C126.691 56.1 127.791 55.3267 127.791 53.78C127.791 52.2733 126.705 51.52 124.531 51.52H122.391V56.1ZM135.286 64V51.58H130.746V49.84H141.806V51.58H137.266V64H135.286ZM143.693 64V49.84H145.673V61.06H145.713L152.853 49.84H155.033V64H153.053V52.78H153.013L145.873 64H143.693ZM158.478 64V49.84H161.558L165.798 60.72H165.838L170.018 49.84H173.098V64H171.118V52.16H171.078L166.378 64H165.118L160.438 52.16H160.398V64H158.478ZM176.544 64V49.84H185.624V51.58H178.524V55.82H185.204V57.52H178.524V62.24H185.924V64H176.544ZM188.556 64V49.84H190.536V55.76H197.716V49.84H199.696V64H197.716V57.52H190.536V64H188.556ZM206.106 64V51.58H201.566V49.84H212.626V51.58H208.086V64H206.106Z" fill="black"/>
<path d="M46 74H222" stroke="black"/>
<path d="M60.6446 106.285C59.0646 106.285 57.7496 105.76 56.6996 104.71C55.6596 103.65 55.1396 102.31 55.1396 100.69C55.1396 99.07 55.6596 97.735 56.6996 96.685C57.7496 95.625 59.0646 95.095 60.6446 95.095C62.2346 95.095 63.5496 95.625 64.5896 96.685C65.6396 97.735 66.1646 99.07 66.1646 100.69C66.1646 102.31 65.6396 103.65 64.5896 104.71C63.5496 105.76 62.2346 106.285 60.6446 106.285ZM60.6446 105.52C62.0246 105.52 63.1396 105.055 63.9896 104.125C64.8396 103.185 65.2646 102.04 65.2646 100.69C65.2646 99.34 64.8346 98.2 63.9746 97.27C63.1246 96.33 62.0146 95.86 60.6446 95.86C59.2746 95.86 58.1646 96.33 57.3146 97.27C56.4646 98.2 56.0396 99.34 56.0396 100.69C56.0396 102.04 56.4646 103.185 57.3146 104.125C58.1646 105.055 59.2746 105.52 60.6446 105.52ZM68.4959 106V99.01H73.0409V99.7H69.3209V106H68.4959ZM75.5901 104.65V109.6H74.7801V99.01H75.5901V100.405H75.6351C75.9251 99.885 76.3151 99.495 76.8051 99.235C77.3051 98.965 77.8401 98.83 78.4101 98.83C79.4701 98.83 80.3301 99.18 80.9901 99.88C81.6601 100.57 81.9951 101.445 81.9951 102.505C81.9951 103.565 81.6651 104.445 81.0051 105.145C80.3551 105.845 79.5001 106.195 78.4401 106.195C77.8601 106.195 77.3151 106.065 76.8051 105.805C76.2951 105.535 75.9051 105.15 75.6351 104.65H75.5901ZM80.3601 104.635C80.8701 104.065 81.1251 103.355 81.1251 102.505C81.1251 101.655 80.8701 100.945 80.3601 100.375C79.8601 99.795 79.1851 99.505 78.3351 99.505C77.5251 99.505 76.8501 99.795 76.3101 100.375C75.7801 100.945 75.5151 101.655 75.5151 102.505C75.5151 103.355 75.7801 104.065 76.3101 104.635C76.8501 105.205 77.5251 105.49 78.3351 105.49C79.1851 105.49 79.8601 105.205 80.3601 104.635ZM87.4077 106.195C86.3377 106.195 85.4527 105.845 84.7527 105.145C84.0627 104.445 83.7177 103.565 83.7177 102.505C83.7177 101.435 84.0627 100.555 84.7527 99.865C85.4427 99.175 86.3277 98.83 87.4077 98.83C88.4877 98.83 89.3727 99.175 90.0627 99.865C90.7627 100.555 91.1127 101.435 91.1127 102.505C91.1127 103.565 90.7627 104.445 90.0627 105.145C89.3727 105.845 88.4877 106.195 87.4077 106.195ZM87.4077 105.49C88.2677 105.49 88.9577 105.205 89.4777 104.635C89.9977 104.065 90.2577 103.355 90.2577 102.505C90.2577 101.655 89.9977 100.945 89.4777 100.375C88.9577 99.795 88.2677 99.505 87.4077 99.505C86.5577 99.505 85.8727 99.795 85.3527 100.375C84.8327 100.945 84.5727 101.655 84.5727 102.505C84.5727 103.355 84.8327 104.065 85.3527 104.635C85.8727 105.205 86.5577 105.49 87.4077 105.49ZM93.3983 106V99.01H94.6133L97.3883 104.8L100.178 99.01H101.363V106H100.553V99.955H100.523L97.5983 106H97.1633L94.2233 99.955V106H93.3983ZM104.194 106V99.01H105.019V102.025H109.309V99.01H110.119V106H109.309V102.715H105.019V106H104.194ZM112.954 106V99.01H113.779V101.755H115.654C116.514 101.755 117.169 101.945 117.619 102.325C118.079 102.705 118.309 103.235 118.309 103.915C118.309 104.585 118.084 105.1 117.634 105.46C117.184 105.82 116.524 106 115.654 106H112.954ZM113.779 105.295H115.744C116.894 105.295 117.469 104.835 117.469 103.915C117.469 102.935 116.894 102.445 115.744 102.445H113.779V105.295ZM119.689 106V99.01H120.499V106H119.689ZM127.81 96.865C127.44 97.205 126.965 97.375 126.385 97.375C125.805 97.375 125.325 97.205 124.945 96.865C124.575 96.515 124.355 96.06 124.285 95.5L124.855 95.395C124.925 95.815 125.1 96.14 125.38 96.37C125.66 96.6 125.995 96.715 126.385 96.715C126.775 96.715 127.11 96.6 127.39 96.37C127.67 96.14 127.845 95.815 127.915 95.395L128.485 95.5C128.415 96.06 128.19 96.515 127.81 96.865ZM123.34 106V99.01H124.165V104.86L128.56 99.01H129.445V106H128.65V100.105H128.62L124.225 106H123.34ZM136.025 106V99.01H139.16C139.78 99.01 140.305 99.145 140.735 99.415C141.165 99.685 141.38 100.135 141.38 100.765C141.38 101.155 141.26 101.485 141.02 101.755C140.78 102.025 140.475 102.205 140.105 102.295V102.31C140.565 102.37 140.95 102.555 141.26 102.865C141.57 103.165 141.725 103.57 141.725 104.08C141.725 104.69 141.495 105.165 141.035 105.505C140.575 105.835 139.975 106 139.235 106H136.025ZM136.85 105.295H139.115C139.645 105.295 140.07 105.19 140.39 104.98C140.72 104.77 140.885 104.45 140.885 104.02C140.885 103.58 140.73 103.25 140.42 103.03C140.11 102.81 139.71 102.7 139.22 102.7H136.85V105.295ZM136.85 102.025H139.13C139.52 102.025 139.86 101.93 140.15 101.74C140.44 101.54 140.585 101.245 140.585 100.855C140.585 100.455 140.435 100.165 140.135 99.985C139.845 99.795 139.465 99.7 138.995 99.7H136.85V102.025ZM144.009 106V99.01H144.834V101.755H146.709C147.569 101.755 148.224 101.945 148.674 102.325C149.134 102.705 149.364 103.235 149.364 103.915C149.364 104.585 149.139 105.1 148.689 105.46C148.239 105.82 147.579 106 146.709 106H144.009ZM144.834 105.295H146.799C147.949 105.295 148.524 104.835 148.524 103.915C148.524 102.935 147.949 102.445 146.799 102.445H144.834V105.295ZM150.744 106V99.01H151.554V106H150.744ZM157.649 106.195C156.429 106.195 155.509 105.79 154.889 104.98C154.299 104.31 154.004 103.23 154.004 101.74C154.004 101.11 154.014 100.57 154.034 100.12C154.064 99.66 154.114 99.185 154.184 98.695C154.254 98.205 154.359 97.79 154.499 97.45C154.649 97.11 154.834 96.795 155.054 96.505C155.274 96.205 155.554 95.97 155.894 95.8C156.244 95.63 156.649 95.515 157.109 95.455L159.359 95.185C160.069 95.095 160.484 94.865 160.604 94.495L161.189 94.675C161.019 95.345 160.489 95.735 159.599 95.845L157.454 96.115C156.434 96.245 155.724 96.65 155.324 97.33C154.924 98.01 154.714 99.13 154.694 100.69H154.739C155.359 99.46 156.404 98.845 157.874 98.845C158.904 98.845 159.739 99.195 160.379 99.895C161.019 100.595 161.339 101.47 161.339 102.52C161.339 103.58 160.994 104.46 160.304 105.16C159.614 105.85 158.729 106.195 157.649 106.195ZM155.609 104.65C156.129 105.21 156.809 105.49 157.649 105.49C158.489 105.49 159.169 105.21 159.689 104.65C160.219 104.09 160.484 103.385 160.484 102.535C160.484 101.675 160.229 100.96 159.719 100.39C159.209 99.82 158.534 99.535 157.694 99.535C156.864 99.535 156.179 99.825 155.639 100.405C155.109 100.975 154.844 101.685 154.844 102.535C154.844 103.385 155.099 104.09 155.609 104.65ZM166.773 106.195C165.703 106.195 164.818 105.845 164.118 105.145C163.428 104.445 163.083 103.565 163.083 102.505C163.083 101.435 163.428 100.555 164.118 99.865C164.808 99.175 165.693 98.83 166.773 98.83C167.853 98.83 168.738 99.175 169.428 99.865C170.128 100.555 170.478 101.435 170.478 102.505C170.478 103.565 170.128 104.445 169.428 105.145C168.738 105.845 167.853 106.195 166.773 106.195ZM166.773 105.49C167.633 105.49 168.323 105.205 168.843 104.635C169.363 104.065 169.623 103.355 169.623 102.505C169.623 101.655 169.363 100.945 168.843 100.375C168.323 99.795 167.633 99.505 166.773 99.505C165.923 99.505 165.238 99.795 164.718 100.375C164.198 100.945 163.938 101.655 163.938 102.505C163.938 103.355 164.198 104.065 164.718 104.635C165.238 105.205 165.923 105.49 166.773 105.49ZM173.574 104.65V109.6H172.764V99.01H173.574V100.405H173.619C173.909 99.885 174.299 99.495 174.789 99.235C175.289 98.965 175.824 98.83 176.394 98.83C177.454 98.83 178.314 99.18 178.974 99.88C179.644 100.57 179.979 101.445 179.979 102.505C179.979 103.565 179.649 104.445 178.989 105.145C178.339 105.845 177.484 106.195 176.424 106.195C175.844 106.195 175.299 106.065 174.789 105.805C174.279 105.535 173.889 105.15 173.619 104.65H173.574ZM178.344 104.635C178.854 104.065 179.109 103.355 179.109 102.505C179.109 101.655 178.854 100.945 178.344 100.375C177.844 99.795 177.169 99.505 176.319 99.505C175.509 99.505 174.834 99.795 174.294 100.375C173.764 100.945 173.499 101.655 173.499 102.505C173.499 103.355 173.764 104.065 174.294 104.635C174.834 105.205 175.509 105.49 176.319 105.49C177.169 105.49 177.844 105.205 178.344 104.635ZM191.571 99.925L191.031 100.42C190.821 100.15 190.541 99.935 190.191 99.775C189.841 99.615 189.476 99.535 189.096 99.535C188.266 99.535 187.591 99.82 187.071 100.39C186.561 100.95 186.306 101.655 186.306 102.505C186.306 103.355 186.561 104.06 187.071 104.62C187.581 105.18 188.246 105.46 189.066 105.46C189.886 105.46 190.566 105.18 191.106 104.62L191.616 105.085C190.976 105.825 190.126 106.195 189.066 106.195C187.986 106.195 187.116 105.85 186.456 105.16C185.796 104.47 185.466 103.585 185.466 102.505C185.466 101.435 185.801 100.555 186.471 99.865C187.151 99.175 188.021 98.83 189.081 98.83C190.161 98.83 190.991 99.195 191.571 99.925ZM195.263 106.195C194.643 106.195 194.088 106.02 193.598 105.67C193.108 105.32 192.863 104.8 192.863 104.11C192.863 103.71 192.948 103.365 193.118 103.075C193.298 102.785 193.523 102.56 193.793 102.4C194.063 102.23 194.398 102.1 194.798 102.01C195.208 101.91 195.603 101.845 195.983 101.815C196.363 101.785 196.798 101.77 197.288 101.77H197.813V101.455C197.813 100.155 197.153 99.505 195.833 99.505C195.013 99.505 194.318 99.78 193.748 100.33L193.298 99.79C193.958 99.15 194.828 98.83 195.908 98.83C196.718 98.83 197.368 99.045 197.858 99.475C198.348 99.905 198.593 100.535 198.593 101.365V104.425C198.593 105.055 198.633 105.58 198.713 106H197.978C197.898 105.52 197.858 105.09 197.858 104.71H197.828C197.278 105.7 196.423 106.195 195.263 106.195ZM195.458 105.52C196.218 105.52 196.798 105.275 197.198 104.785C197.608 104.285 197.813 103.685 197.813 102.985V102.415H197.288C194.898 102.415 193.703 102.965 193.703 104.065C193.703 104.565 193.873 104.935 194.213 105.175C194.563 105.405 194.978 105.52 195.458 105.52ZM201.313 106V99.01H202.528L205.303 104.8L208.093 99.01H209.278V106H208.468V99.955H208.438L205.513 106H205.078L202.138 99.955V106H201.313ZM215.259 106.195C214.189 106.195 213.304 105.845 212.604 105.145C211.914 104.445 211.569 103.565 211.569 102.505C211.569 101.435 211.914 100.555 212.604 99.865C213.294 99.175 214.179 98.83 215.259 98.83C216.339 98.83 217.224 99.175 217.914 99.865C218.614 100.555 218.964 101.435 218.964 102.505C218.964 103.565 218.614 104.445 217.914 105.145C217.224 105.845 216.339 106.195 215.259 106.195ZM215.259 105.49C216.119 105.49 216.809 105.205 217.329 104.635C217.849 104.065 218.109 103.355 218.109 102.505C218.109 101.655 217.849 100.945 217.329 100.375C216.809 99.795 216.119 99.505 215.259 99.505C214.409 99.505 213.724 99.795 213.204 100.375C212.684 100.945 212.424 101.655 212.424 102.505C212.424 103.355 212.684 104.065 213.204 104.635C213.724 105.205 214.409 105.49 215.259 105.49ZM225.72 96.865C225.35 97.205 224.875 97.375 224.295 97.375C223.715 97.375 223.235 97.205 222.855 96.865C222.485 96.515 222.265 96.06 222.195 95.5L222.765 95.395C222.835 95.815 223.01 96.14 223.29 96.37C223.57 96.6 223.905 96.715 224.295 96.715C224.685 96.715 225.02 96.6 225.3 96.37C225.58 96.14 225.755 95.815 225.825 95.395L226.395 95.5C226.325 96.06 226.1 96.515 225.72 96.865ZM221.25 106V99.01H222.075V104.86L226.47 99.01H227.355V106H226.56V100.105H226.53L222.135 106H221.25ZM63.625 124.195C63.005 124.195 62.45 124.02 61.96 123.67C61.47 123.32 61.225 122.8 61.225 122.11C61.225 121.71 61.31 121.365 61.48 121.075C61.66 120.785 61.885 120.56 62.155 120.4C62.425 120.23 62.76 120.1 63.16 120.01C63.57 119.91 63.965 119.845 64.345 119.815C64.725 119.785 65.16 119.77 65.65 119.77H66.175V119.455C66.175 118.155 65.515 117.505 64.195 117.505C63.375 117.505 62.68 117.78 62.11 118.33L61.66 117.79C62.32 117.15 63.19 116.83 64.27 116.83C65.08 116.83 65.73 117.045 66.22 117.475C66.71 117.905 66.955 118.535 66.955 119.365V122.425C66.955 123.055 66.995 123.58 67.075 124H66.34C66.26 123.52 66.22 123.09 66.22 122.71H66.19C65.64 123.7 64.785 124.195 63.625 124.195ZM63.82 123.52C64.58 123.52 65.16 123.275 65.56 122.785C65.97 122.285 66.175 121.685 66.175 120.985V120.415H65.65C63.26 120.415 62.065 120.965 62.065 122.065C62.065 122.565 62.235 122.935 62.575 123.175C62.925 123.405 63.34 123.52 63.82 123.52ZM69.7051 124V117.01H70.5151V120.31H70.5601L73.9651 117.01H75.1351L71.4901 120.34L75.5101 124H74.3101L70.5601 120.445H70.5151V124H69.7051ZM78.6015 124V117.7H76.0215V117.01H81.9915V117.7H79.4115V124H78.6015ZM83.5876 127.615C83.3376 127.615 83.0626 127.58 82.7626 127.51L82.8676 126.775C83.0776 126.855 83.3076 126.895 83.5576 126.895C83.8976 126.895 84.1676 126.785 84.3676 126.565C84.5776 126.355 84.7626 126.04 84.9226 125.62L85.5226 124.045L82.5976 117.01H83.5126L85.9426 123.16L88.2226 117.01H89.1076L85.6276 125.95C85.4076 126.5 85.1426 126.915 84.8326 127.195C84.5226 127.475 84.1076 127.615 83.5876 127.615ZM92.6435 124.195C92.0235 124.195 91.4685 124.02 90.9785 123.67C90.4885 123.32 90.2435 122.8 90.2435 122.11C90.2435 121.71 90.3285 121.365 90.4985 121.075C90.6785 120.785 90.9035 120.56 91.1735 120.4C91.4435 120.23 91.7785 120.1 92.1785 120.01C92.5885 119.91 92.9835 119.845 93.3635 119.815C93.7435 119.785 94.1785 119.77 94.6685 119.77H95.1935V119.455C95.1935 118.155 94.5335 117.505 93.2135 117.505C92.3935 117.505 91.6985 117.78 91.1285 118.33L90.6785 117.79C91.3385 117.15 92.2085 116.83 93.2885 116.83C94.0985 116.83 94.7485 117.045 95.2385 117.475C95.7285 117.905 95.9735 118.535 95.9735 119.365V122.425C95.9735 123.055 96.0135 123.58 96.0935 124H95.3585C95.2785 123.52 95.2385 123.09 95.2385 122.71H95.2085C94.6585 123.7 93.8035 124.195 92.6435 124.195ZM92.8385 123.52C93.5985 123.52 94.1785 123.275 94.5785 122.785C94.9885 122.285 95.1935 121.685 95.1935 120.985V120.415H94.6685C92.2785 120.415 91.0835 120.965 91.0835 122.065C91.0835 122.565 91.2535 122.935 91.5935 123.175C91.9435 123.405 92.3585 123.52 92.8385 123.52ZM98.1537 124.075C97.8937 124.075 97.6637 124.045 97.4637 123.985L97.5687 123.28C97.6987 123.33 97.8537 123.355 98.0337 123.355C98.6237 123.355 99.0537 123.04 99.3237 122.41C99.6037 121.77 99.7437 120.78 99.7437 119.44V117.01H104.589V124H103.779V117.7H100.539V119.695C100.539 122.615 99.7437 124.075 98.1537 124.075ZM107.41 124V117.01H108.235V119.755H110.11C110.97 119.755 111.625 119.945 112.075 120.325C112.535 120.705 112.765 121.235 112.765 121.915C112.765 122.585 112.54 123.1 112.09 123.46C111.64 123.82 110.98 124 110.11 124H107.41ZM108.235 123.295H110.2C111.35 123.295 111.925 122.835 111.925 121.915C111.925 120.935 111.35 120.445 110.2 120.445H108.235V123.295ZM114.851 124V117.01H115.676V120.025H119.966V117.01H120.776V124H119.966V120.715H115.676V124H114.851ZM126.761 124.195C125.691 124.195 124.806 123.845 124.106 123.145C123.416 122.445 123.071 121.565 123.071 120.505C123.071 119.435 123.416 118.555 124.106 117.865C124.796 117.175 125.681 116.83 126.761 116.83C127.841 116.83 128.726 117.175 129.416 117.865C130.116 118.555 130.466 119.435 130.466 120.505C130.466 121.565 130.116 122.445 129.416 123.145C128.726 123.845 127.841 124.195 126.761 124.195ZM126.761 123.49C127.621 123.49 128.311 123.205 128.831 122.635C129.351 122.065 129.611 121.355 129.611 120.505C129.611 119.655 129.351 118.945 128.831 118.375C128.311 117.795 127.621 117.505 126.761 117.505C125.911 117.505 125.226 117.795 124.706 118.375C124.186 118.945 123.926 119.655 123.926 120.505C123.926 121.355 124.186 122.065 124.706 122.635C125.226 123.205 125.911 123.49 126.761 123.49ZM137.221 114.865C136.851 115.205 136.376 115.375 135.796 115.375C135.216 115.375 134.736 115.205 134.356 114.865C133.986 114.515 133.766 114.06 133.696 113.5L134.266 113.395C134.336 113.815 134.511 114.14 134.791 114.37C135.071 114.6 135.406 114.715 135.796 114.715C136.186 114.715 136.521 114.6 136.801 114.37C137.081 114.14 137.256 113.815 137.326 113.395L137.896 113.5C137.826 114.06 137.601 114.515 137.221 114.865ZM132.751 124V117.01H133.576V122.86L137.971 117.01H138.856V124H138.061V118.105H138.031L133.636 124H132.751ZM148.692 124.195C147.472 124.195 146.552 123.79 145.932 122.98C145.342 122.31 145.047 121.23 145.047 119.74C145.047 119.11 145.057 118.57 145.077 118.12C145.107 117.66 145.157 117.185 145.227 116.695C145.297 116.205 145.402 115.79 145.542 115.45C145.692 115.11 145.877 114.795 146.097 114.505C146.317 114.205 146.597 113.97 146.937 113.8C147.287 113.63 147.692 113.515 148.152 113.455L150.402 113.185C151.112 113.095 151.527 112.865 151.647 112.495L152.232 112.675C152.062 113.345 151.532 113.735 150.642 113.845L148.497 114.115C147.477 114.245 146.767 114.65 146.367 115.33C145.967 116.01 145.757 117.13 145.737 118.69H145.782C146.402 117.46 147.447 116.845 148.917 116.845C149.947 116.845 150.782 117.195 151.422 117.895C152.062 118.595 152.382 119.47 152.382 120.52C152.382 121.58 152.037 122.46 151.347 123.16C150.657 123.85 149.772 124.195 148.692 124.195ZM146.652 122.65C147.172 123.21 147.852 123.49 148.692 123.49C149.532 123.49 150.212 123.21 150.732 122.65C151.262 122.09 151.527 121.385 151.527 120.535C151.527 119.675 151.272 118.96 150.762 118.39C150.252 117.82 149.577 117.535 148.737 117.535C147.907 117.535 147.222 117.825 146.682 118.405C146.152 118.975 145.887 119.685 145.887 120.535C145.887 121.385 146.142 122.09 146.652 122.65ZM154.665 124V117.01H155.49V122.86L159.885 117.01H160.77V124H159.975V118.105H159.945L155.55 124H154.665ZM162.386 124L166.241 120.34L162.761 117.01H163.931L167.216 120.31H167.246V117.01H168.071V120.31H168.101L171.386 117.01H172.556L169.076 120.34L172.931 124H171.731L168.101 120.445H168.071V124H167.246V120.445H167.216L163.586 124H162.386ZM174.379 127.615C174.129 127.615 173.854 127.58 173.554 127.51L173.659 126.775C173.869 126.855 174.099 126.895 174.349 126.895C174.689 126.895 174.959 126.785 175.159 126.565C175.369 126.355 175.554 126.04 175.714 125.62L176.314 124.045L173.389 117.01H174.304L176.734 123.16L179.014 117.01H179.899L176.419 125.95C176.199 126.5 175.934 126.915 175.624 127.195C175.314 127.475 174.899 127.615 174.379 127.615ZM183.235 124V117.7H180.655V117.01H186.625V117.7H184.045V124H183.235ZM188.511 120.025H193.611C193.581 119.275 193.341 118.67 192.891 118.21C192.451 117.74 191.856 117.505 191.106 117.505C190.366 117.505 189.756 117.77 189.276 118.3C188.796 118.82 188.541 119.395 188.511 120.025ZM191.196 124.195C190.176 124.195 189.331 123.845 188.661 123.145C187.991 122.445 187.656 121.56 187.656 120.49C187.656 119.44 187.986 118.57 188.646 117.88C189.316 117.18 190.141 116.83 191.121 116.83C192.171 116.83 192.981 117.16 193.551 117.82C194.131 118.47 194.421 119.28 194.421 120.25V120.67H188.496C188.516 121.44 188.776 122.105 189.276 122.665C189.776 123.215 190.426 123.49 191.226 123.49C192.156 123.49 192.956 123.095 193.626 122.305L194.166 122.74C193.416 123.71 192.426 124.195 191.196 124.195ZM197.516 122.65V127.6H196.706V117.01H197.516V118.405H197.561C197.851 117.885 198.241 117.495 198.731 117.235C199.231 116.965 199.766 116.83 200.336 116.83C201.396 116.83 202.256 117.18 202.916 117.88C203.586 118.57 203.921 119.445 203.921 120.505C203.921 121.565 203.591 122.445 202.931 123.145C202.281 123.845 201.426 124.195 200.366 124.195C199.786 124.195 199.241 124.065 198.731 123.805C198.221 123.535 197.831 123.15 197.561 122.65H197.516ZM202.286 122.635C202.796 122.065 203.051 121.355 203.051 120.505C203.051 119.655 202.796 118.945 202.286 118.375C201.786 117.795 201.111 117.505 200.261 117.505C199.451 117.505 198.776 117.795 198.236 118.375C197.706 118.945 197.441 119.655 197.441 120.505C197.441 121.355 197.706 122.065 198.236 122.635C198.776 123.205 199.451 123.49 200.261 123.49C201.111 123.49 201.786 123.205 202.286 122.635ZM206.184 124V117.01H207.009V122.86L211.404 117.01H212.289V124H211.494V118.105H211.464L207.069 124H206.184ZM215.119 124V117.01H215.944V122.86L220.339 117.01H221.224V124H220.429V118.105H220.399L216.004 124H215.119ZM100.993 142V135.01H104.128C104.748 135.01 105.273 135.145 105.703 135.415C106.133 135.685 106.348 136.135 106.348 136.765C106.348 137.155 106.228 137.485 105.988 137.755C105.748 138.025 105.443 138.205 105.073 138.295V138.31C105.533 138.37 105.918 138.555 106.228 138.865C106.538 139.165 106.693 139.57 106.693 140.08C106.693 140.69 106.463 141.165 106.003 141.505C105.543 141.835 104.943 142 104.203 142H100.993ZM101.818 141.295H104.083C104.613 141.295 105.038 141.19 105.358 140.98C105.688 140.77 105.853 140.45 105.853 140.02C105.853 139.58 105.698 139.25 105.388 139.03C105.078 138.81 104.678 138.7 104.188 138.7H101.818V141.295ZM101.818 138.025H104.098C104.488 138.025 104.828 137.93 105.118 137.74C105.408 137.54 105.553 137.245 105.553 136.855C105.553 136.455 105.403 136.165 105.103 135.985C104.813 135.795 104.433 135.7 103.963 135.7H101.818V138.025ZM114.557 135.925L114.017 136.42C113.807 136.15 113.527 135.935 113.177 135.775C112.827 135.615 112.462 135.535 112.082 135.535C111.252 135.535 110.577 135.82 110.057 136.39C109.547 136.95 109.292 137.655 109.292 138.505C109.292 139.355 109.547 140.06 110.057 140.62C110.567 141.18 111.232 141.46 112.052 141.46C112.872 141.46 113.552 141.18 114.092 140.62L114.602 141.085C113.962 141.825 113.112 142.195 112.052 142.195C110.972 142.195 110.102 141.85 109.442 141.16C108.782 140.47 108.452 139.585 108.452 138.505C108.452 137.435 108.787 136.555 109.457 135.865C110.137 135.175 111.007 134.83 112.067 134.83C113.147 134.83 113.977 135.195 114.557 135.925ZM116.704 138.025H121.804C121.774 137.275 121.534 136.67 121.084 136.21C120.644 135.74 120.049 135.505 119.299 135.505C118.559 135.505 117.949 135.77 117.469 136.3C116.989 136.82 116.734 137.395 116.704 138.025ZM119.389 142.195C118.369 142.195 117.524 141.845 116.854 141.145C116.184 140.445 115.849 139.56 115.849 138.49C115.849 137.44 116.179 136.57 116.839 135.88C117.509 135.18 118.334 134.83 119.314 134.83C120.364 134.83 121.174 135.16 121.744 135.82C122.324 136.47 122.614 137.28 122.614 138.25V138.67H116.689C116.709 139.44 116.969 140.105 117.469 140.665C117.969 141.215 118.619 141.49 119.419 141.49C120.349 141.49 121.149 141.095 121.819 140.305L122.359 140.74C121.609 141.71 120.619 142.195 119.389 142.195ZM124.9 142V135.01H129.445V135.7H125.725V142H124.9ZM134.158 142.195C133.088 142.195 132.203 141.845 131.503 141.145C130.813 140.445 130.468 139.565 130.468 138.505C130.468 137.435 130.813 136.555 131.503 135.865C132.193 135.175 133.078 134.83 134.158 134.83C135.238 134.83 136.123 135.175 136.813 135.865C137.513 136.555 137.863 137.435 137.863 138.505C137.863 139.565 137.513 140.445 136.813 141.145C136.123 141.845 135.238 142.195 134.158 142.195ZM134.158 141.49C135.018 141.49 135.708 141.205 136.228 140.635C136.748 140.065 137.008 139.355 137.008 138.505C137.008 137.655 136.748 136.945 136.228 136.375C135.708 135.795 135.018 135.505 134.158 135.505C133.308 135.505 132.623 135.795 132.103 136.375C131.583 136.945 131.323 137.655 131.323 138.505C131.323 139.355 131.583 140.065 132.103 140.635C132.623 141.205 133.308 141.49 134.158 141.49ZM143.899 142V135.01H145.114L147.889 140.8L150.679 135.01H151.864V142H151.054V135.955H151.024L148.099 142H147.664L144.724 135.955V142H143.899ZM154.695 142V135.01H155.52V140.86L159.915 135.01H160.8V142H160.005V136.105H159.975L155.58 142H154.695ZM164.44 140.65V145.6H163.63V135.01H164.44V136.405H164.485C164.775 135.885 165.165 135.495 165.655 135.235C166.155 134.965 166.69 134.83 167.26 134.83C168.32 134.83 169.18 135.18 169.84 135.88C170.51 136.57 170.845 137.445 170.845 138.505C170.845 139.565 170.515 140.445 169.855 141.145C169.205 141.845 168.35 142.195 167.29 142.195C166.71 142.195 166.165 142.065 165.655 141.805C165.145 141.535 164.755 141.15 164.485 140.65H164.44ZM169.21 140.635C169.72 140.065 169.975 139.355 169.975 138.505C169.975 137.655 169.72 136.945 169.21 136.375C168.71 135.795 168.035 135.505 167.185 135.505C166.375 135.505 165.7 135.795 165.16 136.375C164.63 136.945 164.365 137.655 164.365 138.505C164.365 139.355 164.63 140.065 165.16 140.635C165.7 141.205 166.375 141.49 167.185 141.49C168.035 141.49 168.71 141.205 169.21 140.635ZM174.968 142.195C174.348 142.195 173.793 142.02 173.303 141.67C172.813 141.32 172.568 140.8 172.568 140.11C172.568 139.71 172.653 139.365 172.823 139.075C173.003 138.785 173.228 138.56 173.498 138.4C173.768 138.23 174.103 138.1 174.503 138.01C174.913 137.91 175.308 137.845 175.688 137.815C176.068 137.785 176.503 137.77 176.993 137.77H177.518V137.455C177.518 136.155 176.858 135.505 175.538 135.505C174.718 135.505 174.023 135.78 173.453 136.33L173.003 135.79C173.663 135.15 174.533 134.83 175.613 134.83C176.423 134.83 177.073 135.045 177.563 135.475C178.053 135.905 178.298 136.535 178.298 137.365V140.425C178.298 141.055 178.338 141.58 178.418 142H177.683C177.603 141.52 177.563 141.09 177.563 140.71H177.533C176.983 141.7 176.128 142.195 174.968 142.195ZM175.163 141.52C175.923 141.52 176.503 141.275 176.903 140.785C177.313 140.285 177.518 139.685 177.518 138.985V138.415H176.993C174.603 138.415 173.408 138.965 173.408 140.065C173.408 140.565 173.578 140.935 173.918 141.175C174.268 141.405 174.683 141.52 175.163 141.52ZM182.188 141.4C182.188 141.59 182.123 141.755 181.993 141.895C181.863 142.025 181.703 142.09 181.513 142.09C181.323 142.09 181.163 142.025 181.033 141.895C180.903 141.755 180.838 141.59 180.838 141.4C180.838 141.22 180.903 141.065 181.033 140.935C181.163 140.795 181.323 140.725 181.513 140.725C181.703 140.725 181.863 140.795 181.993 140.935C182.123 141.065 182.188 141.22 182.188 141.4Z" fill="black"/>
</svg>
