<svg width="75" height="74" viewBox="0 0 75 74" fill="none" xmlns="http://www.w3.org/2000/svg">
<g filter="url(#filter0_d_170_94)">
<rect x="7.5" y="3" width="60" height="60" rx="30" fill="#C7CDC2"/>
</g>
<path d="M43.3633 33.428C43.3633 34.004 43.2246 34.292 42.9473 34.292H38.3713V38.868C38.3713 39.1453 38.0833 39.284 37.5073 39.284C36.9099 39.284 36.6113 39.1453 36.6113 38.868V34.292H32.0673C31.7899 34.292 31.6513 34.004 31.6513 33.428C31.6513 32.8307 31.7899 32.532 32.0673 32.532H36.6113V27.988C36.6113 27.7107 36.9099 27.572 37.5073 27.572C38.0833 27.572 38.3713 27.7107 38.3713 27.988V32.532H42.9473C43.2246 32.532 43.3633 32.8307 43.3633 33.428Z" fill="black"/>
<defs>
<filter id="filter0_d_170_94" x="0.5" y="0" width="74" height="74" filterUnits="userSpaceOnUse" color-interpolation-filters="sRGB">
<feFlood flood-opacity="0" result="BackgroundImageFix"/>
<feColorMatrix in="SourceAlpha" type="matrix" values="0 0 0 0 0 0 0 0 0 0 0 0 0 0 0 0 0 0 127 0" result="hardAlpha"/>
<feMorphology radius="4" operator="erode" in="SourceAlpha" result="effect1_dropShadow_170_94"/>
<feOffset dy="4"/>
<feGaussianBlur stdDeviation="5.5"/>
<feComposite in2="hardAlpha" operator="out"/>
<feColorMatrix type="matrix" values="0 0 0 0 0 0 0 0 0 0 0 0 0 0 0 0 0 0 0.25 0"/>
<feBlend mode="normal" in2="BackgroundImageFix" result="effect1_dropShadow_170_94"/>
<feBlend mode="normal" in="SourceGraphic" in2="effect1_dropShadow_170_94" result="shape"/>
</filter>
</defs>
</svg>
