<svg width="251" height="213" viewBox="0 0 251 213" fill="none" xmlns="http://www.w3.org/2000/svg">
<path d="M250.744 117.442C250.744 217.699 182.989 212.066 118.236 212.066C53.4836 212.066 0.991211 165.836 0.991211 108.807C0.991211 51.7793 53.4836 2.59861 118.236 2.59861C218.672 -12.4404 250.744 46.3486 250.744 117.442Z" fill="#C7CDC2"/>
<path d="M43 90H219" stroke="black"/>
<path d="M95.0381 79.36C92.8648 79.36 91.0781 78.66 89.6781 77.26C88.2781 75.86 87.5781 74.0733 87.5781 71.9C87.5781 69.7133 88.2915 67.9333 89.7181 66.56C91.1448 65.1733 92.9448 64.48 95.1181 64.48C96.1315 64.48 97.1048 64.6733 98.0381 65.06C98.9715 65.4467 99.6915 65.9867 100.198 66.68L98.6381 67.88C98.2915 67.3867 97.7981 66.9867 97.1581 66.68C96.5181 66.3733 95.8381 66.22 95.1181 66.22C93.5181 66.22 92.2181 66.7667 91.2181 67.86C90.2315 68.9533 89.7381 70.3 89.7381 71.9C89.7381 73.5267 90.2248 74.8867 91.1981 75.98C92.1715 77.06 93.4581 77.6 95.0581 77.6C96.7248 77.6 97.9915 76.9733 98.8581 75.72L100.438 76.8C99.1848 78.5067 97.3848 79.36 95.0381 79.36ZM102.458 79V64.84H111.538V66.58H104.438V70.82H111.118V72.52H104.438V77.24H111.838V79H102.458ZM114.47 79V64.84H118.79C120.377 64.84 121.617 65.1667 122.51 65.82C123.403 66.46 123.85 67.4467 123.85 68.78C123.85 70.14 123.377 71.1467 122.43 71.8C121.497 72.4533 120.25 72.78 118.69 72.78H116.45V79H114.47ZM116.45 71.1H118.55C120.75 71.1 121.85 70.3267 121.85 68.78C121.85 67.2733 120.763 66.52 118.59 66.52H116.45V71.1ZM126.365 79V64.84H131.245C132.471 64.84 133.518 65.1267 134.385 65.7C135.251 66.2733 135.685 67.18 135.685 68.42C135.685 69.18 135.458 69.8333 135.005 70.38C134.565 70.9267 133.965 71.3 133.205 71.5V71.54C134.138 71.6467 134.891 72.0067 135.465 72.62C136.051 73.2333 136.345 74.02 136.345 74.98C136.345 76.2867 135.845 77.2867 134.845 77.98C133.858 78.66 132.585 79 131.025 79H126.365ZM128.345 77.32H130.825C131.451 77.32 132.011 77.2533 132.505 77.12C132.998 76.9867 133.425 76.7333 133.785 76.36C134.158 75.9733 134.345 75.48 134.345 74.88C134.345 73.2933 133.231 72.5 131.005 72.5H128.345V77.32ZM128.345 70.82H130.925C131.738 70.82 132.405 70.64 132.925 70.28C133.445 69.9067 133.705 69.3533 133.705 68.62C133.705 67.2067 132.671 66.5 130.605 66.5H128.345V70.82ZM139.197 79V64.84H141.177V76.06H141.217L148.357 64.84H150.537V79H148.557V67.78H148.517L141.377 79H139.197ZM160.722 79.36C158.548 79.36 156.762 78.66 155.362 77.26C153.962 75.86 153.262 74.0733 153.262 71.9C153.262 69.7133 153.975 67.9333 155.402 66.56C156.828 65.1733 158.628 64.48 160.802 64.48C161.815 64.48 162.788 64.6733 163.722 65.06C164.655 65.4467 165.375 65.9867 165.882 66.68L164.322 67.88C163.975 67.3867 163.482 66.9867 162.842 66.68C162.202 66.3733 161.522 66.22 160.802 66.22C159.202 66.22 157.902 66.7667 156.902 67.86C155.915 68.9533 155.422 70.3 155.422 71.9C155.422 73.5267 155.908 74.8867 156.882 75.98C157.855 77.06 159.142 77.6 160.742 77.6C162.408 77.6 163.675 76.9733 164.542 75.72L166.122 76.8C164.868 78.5067 163.068 79.36 160.722 79.36Z" fill="black"/>
<path d="M65.5564 121V110.38H66.4114V119.695H66.4414L72.6814 110.38H73.6864V121H72.8314V111.625H72.7864L66.5464 121H65.5564ZM76.556 121V114.01H77.381V117.025H81.671V114.01H82.481V121H81.671V117.715H77.381V121H76.556ZM84.2808 123.295V120.295H85.1058C85.4458 119.865 85.7258 119.27 85.9458 118.51C86.1658 117.75 86.2758 116.88 86.2758 115.9V114.01H91.2108V120.295H92.3508V123.295H91.5858V121H85.0458V123.295H84.2808ZM86.0358 120.295H90.4158V114.7H87.0708V116.11C87.0708 117.76 86.7258 119.155 86.0358 120.295ZM94.2953 121V114.01H95.1203V119.86L99.5153 114.01H100.4V121H99.6053V115.105H99.5753L95.1803 121H94.2953ZM103.231 121V114.01H106.366C106.986 114.01 107.511 114.145 107.941 114.415C108.371 114.685 108.586 115.135 108.586 115.765C108.586 116.155 108.466 116.485 108.226 116.755C107.986 117.025 107.681 117.205 107.311 117.295V117.31C107.771 117.37 108.156 117.555 108.466 117.865C108.776 118.165 108.931 118.57 108.931 119.08C108.931 119.69 108.701 120.165 108.241 120.505C107.781 120.835 107.181 121 106.441 121H103.231ZM104.056 120.295H106.321C106.851 120.295 107.276 120.19 107.596 119.98C107.926 119.77 108.091 119.45 108.091 119.02C108.091 118.58 107.936 118.25 107.626 118.03C107.316 117.81 106.916 117.7 106.426 117.7H104.056V120.295ZM104.056 117.025H106.336C106.726 117.025 107.066 116.93 107.356 116.74C107.646 116.54 107.791 116.245 107.791 115.855C107.791 115.455 107.641 115.165 107.341 114.985C107.051 114.795 106.671 114.7 106.201 114.7H104.056V117.025ZM111.214 121V114.01H112.039V119.86L116.434 114.01H117.319V121H116.524V115.105H116.494L112.099 121H111.214ZM119.115 123.295V120.295H119.94C120.28 119.865 120.56 119.27 120.78 118.51C121 117.75 121.11 116.88 121.11 115.9V114.01H126.045V120.295H127.185V123.295H126.42V121H119.88V123.295H119.115ZM120.87 120.295H125.25V114.7H121.905V116.11C121.905 117.76 121.56 119.155 120.87 120.295ZM128.979 124.615C128.729 124.615 128.454 124.58 128.154 124.51L128.259 123.775C128.469 123.855 128.699 123.895 128.949 123.895C129.289 123.895 129.559 123.785 129.759 123.565C129.969 123.355 130.154 123.04 130.314 122.62L130.914 121.045L127.989 114.01H128.904L131.334 120.16L133.614 114.01H134.499L131.019 122.95C130.799 123.5 130.534 123.915 130.224 124.195C129.914 124.475 129.499 124.615 128.979 124.615ZM138.035 121.195C137.415 121.195 136.86 121.02 136.37 120.67C135.88 120.32 135.635 119.8 135.635 119.11C135.635 118.71 135.72 118.365 135.89 118.075C136.07 117.785 136.295 117.56 136.565 117.4C136.835 117.23 137.17 117.1 137.57 117.01C137.98 116.91 138.375 116.845 138.755 116.815C139.135 116.785 139.57 116.77 140.06 116.77H140.585V116.455C140.585 115.155 139.925 114.505 138.605 114.505C137.785 114.505 137.09 114.78 136.52 115.33L136.07 114.79C136.73 114.15 137.6 113.83 138.68 113.83C139.49 113.83 140.14 114.045 140.63 114.475C141.12 114.905 141.365 115.535 141.365 116.365V119.425C141.365 120.055 141.405 120.58 141.485 121H140.75C140.67 120.52 140.63 120.09 140.63 119.71H140.6C140.05 120.7 139.195 121.195 138.035 121.195ZM138.23 120.52C138.99 120.52 139.57 120.275 139.97 119.785C140.38 119.285 140.585 118.685 140.585 117.985V117.415H140.06C137.67 117.415 136.475 117.965 136.475 119.065C136.475 119.565 136.645 119.935 136.985 120.175C137.335 120.405 137.75 120.52 138.23 120.52ZM143.545 121.075C143.285 121.075 143.055 121.045 142.855 120.985L142.96 120.28C143.09 120.33 143.245 120.355 143.425 120.355C144.015 120.355 144.445 120.04 144.715 119.41C144.995 118.77 145.135 117.78 145.135 116.44V114.01H149.98V121H149.17V114.7H145.93V116.695C145.93 119.615 145.135 121.075 143.545 121.075ZM152.801 121V114.01H153.626V116.755H155.501C156.361 116.755 157.016 116.945 157.466 117.325C157.926 117.705 158.156 118.235 158.156 118.915C158.156 119.585 157.931 120.1 157.481 120.46C157.031 120.82 156.371 121 155.501 121H152.801ZM153.626 120.295H155.591C156.741 120.295 157.316 119.835 157.316 118.915C157.316 117.935 156.741 117.445 155.591 117.445H153.626V120.295ZM160.243 121V114.01H161.068V117.025H165.358V114.01H166.168V121H165.358V117.715H161.068V121H160.243ZM169.002 121V114.01H169.827V116.755H171.702C172.562 116.755 173.217 116.945 173.667 117.325C174.127 117.705 174.357 118.235 174.357 118.915C174.357 119.585 174.132 120.1 173.682 120.46C173.232 120.82 172.572 121 171.702 121H169.002ZM169.827 120.295H171.792C172.942 120.295 173.517 119.835 173.517 118.915C173.517 117.935 172.942 117.445 171.792 117.445H169.827V120.295ZM175.737 121V114.01H176.547V121H175.737ZM183.858 111.865C183.488 112.205 183.013 112.375 182.433 112.375C181.853 112.375 181.373 112.205 180.993 111.865C180.623 111.515 180.403 111.06 180.333 110.5L180.903 110.395C180.973 110.815 181.148 111.14 181.428 111.37C181.708 111.6 182.043 111.715 182.433 111.715C182.823 111.715 183.158 111.6 183.438 111.37C183.718 111.14 183.893 110.815 183.963 110.395L184.533 110.5C184.463 111.06 184.238 111.515 183.858 111.865ZM179.388 121V114.01H180.213V119.86L184.608 114.01H185.493V121H184.698V115.105H184.668L180.273 121H179.388ZM62.4642 139V132.01H68.2842V139H67.4742V132.7H63.2892V139H62.4642ZM74.2714 139.195C73.2014 139.195 72.3164 138.845 71.6164 138.145C70.9264 137.445 70.5814 136.565 70.5814 135.505C70.5814 134.435 70.9264 133.555 71.6164 132.865C72.3064 132.175 73.1914 131.83 74.2714 131.83C75.3514 131.83 76.2364 132.175 76.9264 132.865C77.6264 133.555 77.9764 134.435 77.9764 135.505C77.9764 136.565 77.6264 137.445 76.9264 138.145C76.2364 138.845 75.3514 139.195 74.2714 139.195ZM74.2714 138.49C75.1314 138.49 75.8214 138.205 76.3414 137.635C76.8614 137.065 77.1214 136.355 77.1214 135.505C77.1214 134.655 76.8614 133.945 76.3414 133.375C75.8214 132.795 75.1314 132.505 74.2714 132.505C73.4214 132.505 72.7364 132.795 72.2164 133.375C71.6964 133.945 71.4364 134.655 71.4364 135.505C71.4364 136.355 71.6964 137.065 72.2164 137.635C72.7364 138.205 73.4214 138.49 74.2714 138.49ZM79.0513 141.295V138.295H79.8763C80.2163 137.865 80.4963 137.27 80.7163 136.51C80.9363 135.75 81.0463 134.88 81.0463 133.9V132.01H85.9813V138.295H87.1213V141.295H86.3563V139H79.8163V141.295H79.0513ZM80.8063 138.295H85.1863V132.7H81.8413V134.11C81.8413 135.76 81.4963 137.155 80.8063 138.295ZM88.1022 139L90.8472 135.37L88.3122 132.01H89.3622L91.3572 134.8L93.3522 132.01H94.3422L91.8372 135.34L94.6272 139H93.5622L91.3422 135.925L89.0772 139H88.1022ZM99.3788 139.195C98.3088 139.195 97.4238 138.845 96.7238 138.145C96.0338 137.445 95.6888 136.565 95.6888 135.505C95.6888 134.435 96.0338 133.555 96.7238 132.865C97.4138 132.175 98.2988 131.83 99.3788 131.83C100.459 131.83 101.344 132.175 102.034 132.865C102.734 133.555 103.084 134.435 103.084 135.505C103.084 136.565 102.734 137.445 102.034 138.145C101.344 138.845 100.459 139.195 99.3788 139.195ZM99.3788 138.49C100.239 138.49 100.929 138.205 101.449 137.635C101.969 137.065 102.229 136.355 102.229 135.505C102.229 134.655 101.969 133.945 101.449 133.375C100.929 132.795 100.239 132.505 99.3788 132.505C98.5288 132.505 97.8438 132.795 97.3238 133.375C96.8038 133.945 96.5438 134.655 96.5438 135.505C96.5438 136.355 96.8038 137.065 97.3238 137.635C97.8438 138.205 98.5288 138.49 99.3788 138.49ZM104.159 141.295V138.295H104.984C105.324 137.865 105.604 137.27 105.824 136.51C106.044 135.75 106.154 134.88 106.154 133.9V132.01H111.089V138.295H112.229V141.295H111.464V139H104.924V141.295H104.159ZM105.914 138.295H110.294V132.7H106.949V134.11C106.949 135.76 106.604 137.155 105.914 138.295ZM117.953 139V132.01H118.763V135.31H118.808L122.213 132.01H123.383L119.738 135.34L123.758 139H122.558L118.808 135.445H118.763V139H117.953ZM129.145 139V132.01H129.955V135.31H130L133.405 132.01H134.575L130.93 135.34L134.95 139H133.75L130 135.445H129.955V139H129.145ZM138.416 139.195C137.796 139.195 137.241 139.02 136.751 138.67C136.261 138.32 136.016 137.8 136.016 137.11C136.016 136.71 136.101 136.365 136.271 136.075C136.451 135.785 136.676 135.56 136.946 135.4C137.216 135.23 137.551 135.1 137.951 135.01C138.361 134.91 138.756 134.845 139.136 134.815C139.516 134.785 139.951 134.77 140.441 134.77H140.966V134.455C140.966 133.155 140.306 132.505 138.986 132.505C138.166 132.505 137.471 132.78 136.901 133.33L136.451 132.79C137.111 132.15 137.981 131.83 139.061 131.83C139.871 131.83 140.521 132.045 141.011 132.475C141.501 132.905 141.746 133.535 141.746 134.365V137.425C141.746 138.055 141.786 138.58 141.866 139H141.131C141.051 138.52 141.011 138.09 141.011 137.71H140.981C140.431 138.7 139.576 139.195 138.416 139.195ZM138.611 138.52C139.371 138.52 139.951 138.275 140.351 137.785C140.761 137.285 140.966 136.685 140.966 135.985V135.415H140.441C138.051 135.415 136.856 135.965 136.856 137.065C136.856 137.565 137.026 137.935 137.366 138.175C137.716 138.405 138.131 138.52 138.611 138.52ZM143.251 139L147.106 135.34L143.626 132.01H144.796L148.081 135.31H148.111V132.01H148.936V135.31H148.966L152.251 132.01H153.421L149.941 135.34L153.796 139H152.596L148.966 135.445H148.936V139H148.111V135.445H148.081L144.451 139H143.251ZM154.359 141.295V138.295H155.184C155.524 137.865 155.804 137.27 156.024 136.51C156.244 135.75 156.354 134.88 156.354 133.9V132.01H161.289V138.295H162.429V141.295H161.664V139H155.124V141.295H154.359ZM156.114 138.295H160.494V132.7H157.149V134.11C157.149 135.76 156.804 137.155 156.114 138.295ZM164.373 139V132.01H165.588L168.363 137.8L171.153 132.01H172.338V139H171.528V132.955H171.498L168.573 139H168.138L165.198 132.955V139H164.373ZM178.319 139.195C177.249 139.195 176.364 138.845 175.664 138.145C174.974 137.445 174.629 136.565 174.629 135.505C174.629 134.435 174.974 133.555 175.664 132.865C176.354 132.175 177.239 131.83 178.319 131.83C179.399 131.83 180.284 132.175 180.974 132.865C181.674 133.555 182.024 134.435 182.024 135.505C182.024 136.565 181.674 137.445 180.974 138.145C180.284 138.845 179.399 139.195 178.319 139.195ZM178.319 138.49C179.179 138.49 179.869 138.205 180.389 137.635C180.909 137.065 181.169 136.355 181.169 135.505C181.169 134.655 180.909 133.945 180.389 133.375C179.869 132.795 179.179 132.505 178.319 132.505C177.469 132.505 176.784 132.795 176.264 133.375C175.744 133.945 175.484 134.655 175.484 135.505C175.484 136.355 175.744 137.065 176.264 137.635C176.784 138.205 177.469 138.49 178.319 138.49ZM184.16 142.615C183.91 142.615 183.635 142.58 183.335 142.51L183.44 141.775C183.65 141.855 183.88 141.895 184.13 141.895C184.47 141.895 184.74 141.785 184.94 141.565C185.15 141.355 185.335 141.04 185.495 140.62L186.095 139.045L183.17 132.01H184.085L186.515 138.16L188.795 132.01H189.68L186.2 140.95C185.98 141.5 185.715 141.915 185.405 142.195C185.095 142.475 184.68 142.615 184.16 142.615ZM97.2916 157V150.01H98.1016V153.31H98.1466L101.552 150.01H102.722L99.0766 153.34L103.097 157H101.897L98.1466 153.445H98.1016V157H97.2916ZM104.163 157.075C103.903 157.075 103.673 157.045 103.473 156.985L103.578 156.28C103.708 156.33 103.863 156.355 104.043 156.355C104.633 156.355 105.063 156.04 105.333 155.41C105.613 154.77 105.753 153.78 105.753 152.44V150.01H110.598V157H109.788V150.7H106.548V152.695C106.548 155.615 105.753 157.075 104.163 157.075ZM113.419 157V150.01H114.244V155.86L118.639 150.01H119.524V157H118.729V151.105H118.699L114.304 157H113.419ZM122.669 153.025H127.769C127.739 152.275 127.499 151.67 127.049 151.21C126.609 150.74 126.014 150.505 125.264 150.505C124.524 150.505 123.914 150.77 123.434 151.3C122.954 151.82 122.699 152.395 122.669 153.025ZM125.354 157.195C124.334 157.195 123.489 156.845 122.819 156.145C122.149 155.445 121.814 154.56 121.814 153.49C121.814 152.44 122.144 151.57 122.804 150.88C123.474 150.18 124.299 149.83 125.279 149.83C126.329 149.83 127.139 150.16 127.709 150.82C128.289 151.47 128.579 152.28 128.579 153.25V153.67H122.654C122.674 154.44 122.934 155.105 123.434 155.665C123.934 156.215 124.584 156.49 125.384 156.49C126.314 156.49 127.114 156.095 127.784 155.305L128.324 155.74C127.574 156.71 126.584 157.195 125.354 157.195ZM130.865 157V150.01H131.69V153.025H135.98V150.01H136.79V157H135.98V153.715H131.69V157H130.865ZM141.11 157V150.7H138.53V150.01H144.5V150.7H141.92V157H141.11ZM146.096 160.615C145.846 160.615 145.571 160.58 145.271 160.51L145.376 159.775C145.586 159.855 145.816 159.895 146.066 159.895C146.406 159.895 146.676 159.785 146.876 159.565C147.086 159.355 147.271 159.04 147.431 158.62L148.031 157.045L145.106 150.01H146.021L148.451 156.16L150.731 150.01H151.616L148.136 158.95C147.916 159.5 147.651 159.915 147.341 160.195C147.031 160.475 146.616 160.615 146.096 160.615ZM153.92 156.4C153.92 156.59 153.855 156.755 153.725 156.895C153.595 157.025 153.435 157.09 153.245 157.09C153.055 157.09 152.895 157.025 152.765 156.895C152.635 156.755 152.57 156.59 152.57 156.4C152.57 156.22 152.635 156.065 152.765 155.935C152.895 155.795 153.055 155.725 153.245 155.725C153.435 155.725 153.595 155.795 153.725 155.935C153.855 156.065 153.92 156.22 153.92 156.4Z" fill="black"/>
</svg>
